<svg width="473" height="355" viewBox="0 0 473 355" fill="none" xmlns="http://www.w3.org/2000/svg">
<path d="M462.022 207.815C511.656 262.704 367.777 341.807 251.519 341.807C135.262 341.807 54.8299 280.516 41.0165 207.815C7.52398 31.5386 326.381 -80.5016 251.519 73.8224C142.4 298.767 422.935 164.588 462.022 207.815Z" fill="white"/>
<path d="M439.753 220.806C489.387 275.695 345.508 354.798 229.25 354.798C112.993 354.798 32.5608 293.507 18.7475 220.806C-14.7451 44.5293 304.112 -67.5109 229.25 86.8131C120.131 311.758 400.666 177.579 439.753 220.806Z" fill="#212121"/>
<mask id="path-3-outside-1_503_4694" maskUnits="userSpaceOnUse" x="-1" y="72.332" width="191" height="46" fill="black">
<rect fill="white" x="-1" y="72.332" width="191" height="46"/>
<path d="M93.9797 115.834C41.8745 113.542 1.47442 102.312 2.00517 90.2673C2.32338 83.0464 17.0697 77.2398 42.4627 74.3371C42.5536 74.3261 42.6458 74.3331 42.7339 74.3579C42.822 74.3826 42.9044 74.4245 42.9763 74.4812C43.0481 74.5378 43.1081 74.6082 43.1526 74.6881C43.1972 74.768 43.2254 74.8559 43.2358 74.9468C43.2463 75.0376 43.2386 75.1297 43.2132 75.2176C43.1879 75.3055 43.1454 75.3875 43.0882 75.4589C43.031 75.5303 42.9602 75.5897 42.88 75.6337C42.7997 75.6777 42.7115 75.7053 42.6205 75.7151C18.7002 78.4497 3.66876 84.0492 3.39203 90.3283C2.91207 101.22 44.424 112.266 94.0407 114.448C143.657 116.631 185.98 109.274 186.46 98.3822C186.738 92.0767 172.164 85.1595 148.425 80.3305C148.335 80.3126 148.25 80.2772 148.174 80.2263C148.098 80.1754 148.033 80.1101 147.983 80.0341C147.932 79.958 147.897 79.8728 147.88 79.7832C147.862 79.6937 147.863 79.6015 147.881 79.5121C147.899 79.4227 147.935 79.3377 147.986 79.2621C148.037 79.1865 148.103 79.1218 148.179 79.0715C148.255 79.0213 148.341 78.9865 148.43 78.9693C148.52 78.9521 148.612 78.9528 148.702 78.9713C173.899 84.0969 188.167 91.1942 187.847 98.4433C187.317 110.488 146.085 118.126 93.9797 115.834Z"/>
</mask>
<path d="M93.9797 115.834C41.8745 113.542 1.47442 102.312 2.00517 90.2673C2.32338 83.0464 17.0697 77.2398 42.4627 74.3371C42.5536 74.3261 42.6458 74.3331 42.7339 74.3579C42.822 74.3826 42.9044 74.4245 42.9763 74.4812C43.0481 74.5378 43.1081 74.6082 43.1526 74.6881C43.1972 74.768 43.2254 74.8559 43.2358 74.9468C43.2463 75.0376 43.2386 75.1297 43.2132 75.2176C43.1879 75.3055 43.1454 75.3875 43.0882 75.4589C43.031 75.5303 42.9602 75.5897 42.88 75.6337C42.7997 75.6777 42.7115 75.7053 42.6205 75.7151C18.7002 78.4497 3.66876 84.0492 3.39203 90.3283C2.91207 101.22 44.424 112.266 94.0407 114.448C143.657 116.631 185.98 109.274 186.46 98.3822C186.738 92.0767 172.164 85.1595 148.425 80.3305C148.335 80.3126 148.25 80.2772 148.174 80.2263C148.098 80.1754 148.033 80.1101 147.983 80.0341C147.932 79.958 147.897 79.8728 147.88 79.7832C147.862 79.6937 147.863 79.6015 147.881 79.5121C147.899 79.4227 147.935 79.3377 147.986 79.2621C148.037 79.1865 148.103 79.1218 148.179 79.0715C148.255 79.0213 148.341 78.9865 148.43 78.9693C148.52 78.9521 148.612 78.9528 148.702 78.9713C173.899 84.0969 188.167 91.1942 187.847 98.4433C187.317 110.488 146.085 118.126 93.9797 115.834Z" fill="#47A138"/>
<path d="M2.00517 90.2673L0.00710881 90.1793V90.1793L2.00517 90.2673ZM42.4627 74.3371L42.6899 76.3242L42.7031 76.3226L42.4627 74.3371ZM42.6205 75.7151L42.4067 73.7265L42.3933 73.7281L42.6205 75.7151ZM3.39203 90.3283L1.39397 90.2403L1.39397 90.2403L3.39203 90.3283ZM186.46 98.3822L184.462 98.2942V98.2942L186.46 98.3822ZM148.425 80.3305L148.823 78.3707L148.818 78.3696L148.425 80.3305ZM148.702 78.9713L148.297 80.93L148.303 80.9311L148.702 78.9713ZM187.847 98.4433L185.849 98.3552V98.3552L187.847 98.4433ZM94.0676 113.836C68.1153 112.694 45.1481 109.328 28.7896 104.781C20.5943 102.503 14.1697 99.9584 9.87223 97.3171C5.41862 94.5798 3.9232 92.1716 4.00323 90.3554L0.00710881 90.1793C-0.178234 94.3852 3.17731 97.8974 7.77773 100.725C12.5343 103.648 19.3667 106.313 27.7183 108.635C44.4534 113.287 67.7389 116.682 93.8918 117.832L94.0676 113.836ZM4.00323 90.3554C4.05089 89.2738 4.63707 88.0269 6.2113 86.6415C7.79392 85.2487 10.2254 83.8582 13.5636 82.5438C20.2299 79.9189 30.068 77.7669 42.6899 76.3241L42.2356 72.35C29.4644 73.8099 19.2328 76.0126 12.0981 78.8219C8.53586 80.2246 5.63405 81.8211 3.56872 83.6387C1.49499 85.4636 0.118551 87.6504 0.00710881 90.1793L4.00323 90.3554ZM42.7031 76.3226C42.5322 76.3433 42.3591 76.3299 42.1936 76.2835L43.2743 72.4322C42.9325 72.3363 42.575 72.3089 42.2224 72.3516L42.7031 76.3226ZM42.1936 76.2835C42.028 76.237 41.8731 76.1583 41.7378 76.0516L44.2147 72.9108C43.9357 72.6907 43.6161 72.5282 43.2743 72.4322L42.1936 76.2835ZM41.7378 76.0516C41.6026 75.945 41.4897 75.8126 41.4058 75.662L44.8995 73.7141C44.7264 73.4037 44.4936 73.1307 44.2147 72.9108L41.7378 76.0516ZM41.4058 75.662C41.3218 75.5113 41.2684 75.3455 41.2488 75.1742L45.2229 74.7193C45.1825 74.3662 45.0726 74.0246 44.8995 73.7141L41.4058 75.662ZM41.2488 75.1742C41.2292 75.0029 41.2437 74.8293 41.2915 74.6635L45.1349 75.7716C45.2334 75.43 45.2633 75.0724 45.2229 74.7193L41.2488 75.1742ZM41.2915 74.6635C41.3393 74.4977 41.4194 74.3432 41.5271 74.2087L44.6493 76.7091C44.8714 76.4318 45.0365 76.1132 45.1349 75.7716L41.2915 74.6635ZM41.5271 74.2087C41.6348 74.0742 41.768 73.9624 41.919 73.8797L43.8409 77.3877C44.1524 77.217 44.4272 76.9865 44.6493 76.7091L41.5271 74.2087ZM41.919 73.8797C42.07 73.7969 42.2358 73.745 42.4067 73.7266L42.8343 77.7037C43.1872 77.6657 43.5294 77.5584 43.8409 77.3877L41.919 73.8797ZM42.3933 73.7281C30.3533 75.1045 20.4372 77.2124 13.4418 79.8184C9.95274 81.1181 7.08225 82.5808 5.02861 84.216C2.99844 85.8325 1.49972 87.8407 1.39397 90.2403L5.39009 90.4164C5.42271 89.6764 5.90669 88.63 7.52025 87.3452C9.11035 86.079 11.5446 84.7936 14.8381 83.5667C21.4076 81.1195 30.9674 79.0604 42.8477 77.7022L42.3933 73.7281ZM1.39397 90.2403C1.30375 92.2877 2.21701 94.1364 3.61239 95.7231C5.00241 97.3037 6.98837 98.7668 9.3915 100.126C14.2047 102.848 21.0853 105.37 29.4159 107.587C46.1084 112.029 69.0392 115.35 93.9528 116.447L94.1287 112.45C69.4255 111.364 46.792 108.071 30.4444 103.721C22.2548 101.542 15.7465 99.1246 11.3606 96.6442C9.16424 95.402 7.59818 94.1983 6.61608 93.0815C5.63932 91.9709 5.36033 91.0919 5.39009 90.4164L1.39397 90.2403ZM93.9528 116.447C118.866 117.543 142.001 116.247 159.019 113.289C167.513 111.812 174.589 109.904 179.622 107.615C182.136 106.472 184.243 105.189 185.766 103.737C187.296 102.279 188.368 100.518 188.458 98.4703L184.462 98.2942C184.433 98.9697 184.077 99.8209 183.007 100.842C181.93 101.868 180.264 102.929 177.967 103.974C173.38 106.06 166.684 107.896 158.334 109.348C141.667 112.245 118.832 113.537 94.1287 112.45L93.9528 116.447ZM188.458 98.4703C188.565 96.062 187.24 93.9232 185.349 92.1295C183.436 90.3149 180.689 88.6011 177.306 86.9959C170.525 83.7774 160.771 80.8012 148.823 78.3707L148.026 82.2904C159.817 84.6889 169.22 87.5858 175.591 90.6095C178.785 92.1254 181.113 93.625 182.597 95.0317C184.102 96.4593 184.495 97.5497 184.462 98.2942L188.458 98.4703ZM148.818 78.3696C148.986 78.4033 149.146 78.4698 149.288 78.5656L147.06 81.887C147.354 82.0845 147.684 82.2219 148.031 82.2915L148.818 78.3696ZM149.288 78.5656C149.431 78.6613 149.554 78.7842 149.649 78.9274L146.317 81.1407C146.513 81.436 146.765 81.6896 147.06 81.887L149.288 78.5656ZM149.649 78.9274C149.744 79.0707 149.81 79.2314 149.843 79.4002L145.917 80.1662C145.985 80.5142 146.121 80.8454 146.317 81.1407L149.649 78.9274ZM149.843 79.4002C149.876 79.569 149.875 79.7427 149.841 79.9115L145.921 79.1127C145.85 79.4603 145.849 79.8183 145.917 80.1662L149.843 79.4002ZM149.841 79.9115C149.806 80.0801 149.739 80.2402 149.643 80.3826L146.329 78.1416C146.131 78.4353 145.992 78.7653 145.921 79.1127L149.841 79.9115ZM149.643 80.3826C149.546 80.5251 149.423 80.647 149.279 80.7415L147.078 77.4015C146.783 77.5965 146.528 77.848 146.329 78.1416L149.643 80.3826ZM149.279 80.7415C149.136 80.8359 148.976 80.9012 148.807 80.9335L148.054 77.0051C147.706 77.0719 147.374 77.2066 147.078 77.4015L149.279 80.7415ZM148.807 80.9335C148.638 80.9659 148.465 80.9646 148.297 80.9299L149.106 77.0126C148.759 76.9409 148.401 76.9384 148.054 77.0051L148.807 80.9335ZM148.303 80.9311C160.828 83.479 170.501 86.4925 176.952 89.7017C180.183 91.3087 182.499 92.9127 183.963 94.4451C185.419 95.9694 185.897 97.2686 185.849 98.3552L189.845 98.5313C189.957 95.9934 188.771 93.6871 186.855 91.6816C184.946 89.6842 182.18 87.8344 178.734 86.1203C171.832 82.6872 161.772 79.5892 149.1 77.0114L148.303 80.9311ZM185.849 98.3552C185.769 100.172 184.068 102.439 179.39 104.775C174.877 107.029 168.254 108.999 159.89 110.548C143.194 113.642 120.02 114.978 94.0676 113.836L93.8918 117.832C120.045 118.983 143.539 117.646 160.618 114.481C169.142 112.902 176.182 110.848 181.177 108.353C186.009 105.941 189.66 102.737 189.845 98.5313L185.849 98.3552Z" fill="#47A138" mask="url(#path-3-outside-1_503_4694)"/>
<path d="M47.5527 117.758C51.9106 126.039 58.366 133.03 66.2731 138.032C74.1803 143.033 83.2618 145.87 92.6091 146.258C101.956 146.646 111.242 144.572 119.536 140.243C127.83 135.914 134.843 129.483 139.872 121.591C109.052 122.007 78.2322 120.727 47.5527 117.758Z" fill="#47A138"/>
<path d="M145.638 107.006C148.254 99.1398 149.008 90.7707 147.84 82.5615C146.672 74.3523 143.614 66.5283 138.908 59.7088C134.202 52.8893 127.978 47.2614 120.728 43.2706C113.477 39.2798 105.4 37.0356 97.1347 36.7156C88.8696 36.3956 80.6436 38.0086 73.1078 41.427C65.5721 44.8453 58.9333 49.9752 53.717 56.4106C48.5007 62.846 44.85 70.4102 43.0539 78.5047C41.2578 86.5992 41.3656 95.0016 43.3687 103.047C77.1443 108.795 111.521 110.126 145.638 107.006Z" fill="#47A138"/>
<path d="M107.225 71.2947C110.664 71.2947 113.451 68.5074 113.451 65.0692C113.451 61.631 110.664 58.8438 107.225 58.8438C103.787 58.8438 101 61.631 101 65.0692C101 68.5074 103.787 71.2947 107.225 71.2947Z" fill="white"/>
<path d="M75.187 95.5897C80.8894 95.5897 85.5121 90.899 85.5121 85.1127C85.5121 79.3264 80.8894 74.6357 75.187 74.6357C69.4845 74.6357 64.8618 79.3264 64.8618 85.1127C64.8618 90.899 69.4845 95.5897 75.187 95.5897Z" fill="white"/>
<path d="M73.294 213.703C74.8314 213.703 76.0777 212.457 76.0777 210.919C76.0777 209.382 74.8314 208.136 73.294 208.136C71.7566 208.136 70.5103 209.382 70.5103 210.919C70.5103 212.457 71.7566 213.703 73.294 213.703Z" fill="white"/>
<path d="M267.771 321.933C269.308 321.933 270.555 320.686 270.555 319.149C270.555 317.612 269.308 316.365 267.771 316.365C266.234 316.365 264.987 317.612 264.987 319.149C264.987 320.686 266.234 321.933 267.771 321.933Z" fill="white"/>
<path d="M95.1028 180.671C95.8715 180.671 96.4947 180.048 96.4947 179.279C96.4947 178.51 95.8715 177.887 95.1028 177.887C94.3341 177.887 93.7109 178.51 93.7109 179.279C93.7109 180.048 94.3341 180.671 95.1028 180.671Z" fill="white"/>
<path d="M201.808 263.81C202.577 263.81 203.2 263.187 203.2 262.418C203.2 261.65 202.577 261.026 201.808 261.026C201.04 261.026 200.417 261.65 200.417 262.418C200.417 263.187 201.04 263.81 201.808 263.81Z" fill="white"/>
<path d="M390.584 250.213C391.353 250.213 391.976 249.59 391.976 248.822C391.976 248.053 391.353 247.43 390.584 247.43C389.816 247.43 389.193 248.053 389.193 248.822C389.193 249.59 389.816 250.213 390.584 250.213Z" fill="white"/>
<path d="M345.634 291.647C346.402 291.647 347.025 291.024 347.025 290.255C347.025 289.486 346.402 288.863 345.634 288.863C344.865 288.863 344.242 289.486 344.242 290.255C344.242 291.024 344.865 291.647 345.634 291.647Z" fill="white"/>
<path d="M180.134 198.285C180.903 198.285 181.526 197.662 181.526 196.893C181.526 196.124 180.903 195.501 180.134 195.501C179.365 195.501 178.742 196.124 178.742 196.893C178.742 197.662 179.365 198.285 180.134 198.285Z" fill="white"/>
<path d="M191.065 130.26C191.834 130.26 192.457 129.637 192.457 128.868C192.457 128.099 191.834 127.476 191.065 127.476C190.297 127.476 189.674 128.099 189.674 128.868C189.674 129.637 190.297 130.26 191.065 130.26Z" fill="white"/>
<path d="M200.416 35.5469C201.185 35.5469 201.808 34.9238 201.808 34.1551C201.808 33.3863 201.185 32.7632 200.416 32.7632C199.648 32.7632 199.024 33.3863 199.024 34.1551C199.024 34.9238 199.648 35.5469 200.416 35.5469Z" fill="white"/>
<path d="M197.747 337.066C198.516 337.066 199.139 336.443 199.139 335.675C199.139 334.906 198.516 334.283 197.747 334.283C196.979 334.283 196.355 334.906 196.355 335.675C196.355 336.443 196.979 337.066 197.747 337.066Z" fill="white"/>
<path d="M125.257 295.358C126.025 295.358 126.649 294.735 126.649 293.967C126.649 293.198 126.025 292.575 125.257 292.575C124.488 292.575 123.865 293.198 123.865 293.967C123.865 294.735 124.488 295.358 125.257 295.358Z" fill="white"/>
<path d="M342.849 245.252C343.618 245.252 344.241 244.628 344.241 243.86C344.241 243.091 343.618 242.468 342.849 242.468C342.08 242.468 341.457 243.091 341.457 243.86C341.457 244.628 342.08 245.252 342.849 245.252Z" fill="white"/>
<path d="M93.1043 141.445C96.6264 141.445 99.4816 138.658 99.4816 135.22C99.4816 131.781 96.6264 128.994 93.1043 128.994C89.5823 128.994 86.7271 131.781 86.7271 135.22C86.7271 138.658 89.5823 141.445 93.1043 141.445Z" fill="white"/>
<path d="M403.402 164.987L382.217 147.536C383.475 145.09 384.23 142.416 384.436 139.673C384.641 136.93 384.295 134.173 383.416 131.566C382.537 128.959 381.144 126.556 379.319 124.497C377.494 122.439 375.274 120.768 372.791 119.583C368.119 117.37 362.785 116.994 357.848 118.527C352.91 120.061 348.729 123.393 346.131 127.863C343.744 132.002 342.873 136.844 343.668 141.556C344.464 146.267 346.876 150.555 350.49 153.681C354.104 156.807 358.694 158.576 363.471 158.685C368.248 158.793 372.914 157.234 376.666 154.275L397.851 171.726C398.744 172.462 399.894 172.812 401.046 172.7C402.198 172.589 403.258 172.024 403.994 171.131C404.73 170.238 405.081 169.089 404.97 167.936C404.859 166.784 404.295 165.724 403.402 164.987ZM375.281 147.479C373.119 150.104 370.113 151.898 366.776 152.555C363.44 153.212 359.978 152.692 356.982 151.084C353.985 149.475 351.639 146.877 350.344 143.733C349.048 140.589 348.883 137.092 349.876 133.839C350.869 130.587 352.959 127.779 355.79 125.895C358.622 124.011 362.019 123.166 365.403 123.506C368.786 123.845 371.948 125.348 374.348 127.757C376.749 130.166 378.239 133.333 378.567 136.718C378.755 138.64 378.561 140.58 377.998 142.426C377.434 144.273 376.511 145.99 375.281 147.479Z" fill="#47A138"/>
<path d="M423.325 133.867C417.032 133.867 411.93 128.766 411.93 122.472C411.93 116.179 417.032 111.077 423.325 111.077C429.619 111.077 434.72 116.179 434.72 122.472C434.72 128.766 429.619 133.867 423.325 133.867Z" fill="#FF5031"/>
<path d="M416.935 128.181C416.578 128.077 416.252 127.912 415.979 127.695C415.798 127.541 415.66 127.355 415.575 127.152C415.489 126.949 415.459 126.733 415.485 126.518C415.5 126.366 415.558 126.218 415.653 126.087C415.748 125.956 415.879 125.845 416.035 125.763C416.439 125.557 416.973 125.564 417.512 125.772L417.574 122.158L418.012 122.163L417.939 126.411L417.605 126.23C417.219 126.02 416.664 125.868 416.264 126.072C416.165 126.126 416.083 126.198 416.023 126.283C415.964 126.367 415.928 126.462 415.92 126.56C415.901 126.72 415.925 126.88 415.988 127.032C416.051 127.183 416.153 127.322 416.287 127.437C416.761 127.828 417.464 127.959 418.266 128.078L418.188 128.435C417.762 128.382 417.342 128.297 416.935 128.181Z" fill="#212121"/>
<path d="M412.065 122.947L414.764 123.355L414.688 123.857L411.989 123.448L412.065 122.947Z" fill="#212121"/>
<path d="M425.862 122.947L423.162 123.355L423.238 123.857L425.938 123.448L425.862 122.947Z" fill="#212121"/>
<path d="M395.505 148.534L395.763 148.605L417.932 154.765L418.209 154.842L418.415 154.641L422.097 151.038L428.033 155.706L421.966 162.918C421.519 163.45 420.911 163.823 420.234 163.98C419.557 164.137 418.847 164.07 418.212 163.789L394.264 153.218L394.008 153.105L393.777 153.265C393.048 153.771 392.182 154.043 391.295 154.045C390.408 154.047 389.541 153.779 388.809 153.276C388.078 152.773 387.517 152.059 387.201 151.23C386.886 150.401 386.83 149.495 387.041 148.633C387.253 147.771 387.722 146.994 388.386 146.405C389.05 145.816 389.877 145.444 390.758 145.337C391.639 145.23 392.532 145.393 393.317 145.806C394.103 146.218 394.744 146.861 395.156 147.647L395.505 148.534ZM395.505 148.534L395.422 148.28C395.35 148.063 395.262 147.852 395.157 147.648L395.505 148.534Z" stroke="#212121"/>
<path d="M418.845 154.645L427.166 161.121C427.403 161.306 427.676 161.437 427.968 161.506C428.26 161.575 428.564 161.58 428.858 161.521C429.152 161.462 429.43 161.34 429.673 161.164C429.916 160.988 430.118 160.762 430.266 160.501L435.437 151.348C436.374 150.132 436.789 148.593 436.593 147.071C436.396 145.548 435.604 144.166 434.39 143.226C433.176 142.287 431.639 141.868 430.116 142.06C428.593 142.252 427.208 143.041 426.265 144.253L418.685 151.487C418.468 151.695 418.299 151.946 418.188 152.225C418.077 152.504 418.027 152.803 418.042 153.103C418.057 153.402 418.137 153.695 418.275 153.961C418.414 154.227 418.608 154.46 418.845 154.645V154.645Z" fill="#47A138"/>
<path d="M407.847 229.214L410.43 250.154L415.176 250.154L415.177 229.215L407.847 229.214Z" stroke="#212121"/>
<path d="M417.126 248.798L405.925 248.797H405.924C404.987 248.797 404.059 248.982 403.193 249.341C402.326 249.699 401.54 250.225 400.877 250.888C400.214 251.551 399.688 252.338 399.329 253.204C398.97 254.07 398.786 254.998 398.786 255.936V256.168L417.126 256.168L417.126 248.798Z" fill="#E4EDE3"/>
<path d="M393.001 227.823L395.584 248.762L400.33 248.762L400.33 227.823L393.001 227.823Z" stroke="#212121"/>
<path d="M402.28 247.405L391.079 247.405H391.078C390.141 247.405 389.212 247.589 388.346 247.948C387.48 248.307 386.693 248.833 386.03 249.496C385.367 250.158 384.842 250.945 384.483 251.811C384.124 252.678 383.94 253.606 383.94 254.543V254.775L402.28 254.776L402.28 247.405Z" fill="#E4EDE3"/>
<path d="M441.189 199.172C439.977 202.764 437.678 205.891 434.611 208.119C431.544 210.348 427.86 211.568 424.069 211.61L423.781 211.615C420.845 211.699 417.398 210.752 414.015 209.393C407.335 206.707 400.918 202.406 399.216 201.223L402.101 228.962L403.27 240.208C403.3 240.499 403.268 240.793 403.177 241.071C403.086 241.349 402.938 241.605 402.742 241.822C402.546 242.039 402.307 242.213 402.04 242.332C401.773 242.451 401.484 242.513 401.192 242.514H393.987C393.525 242.514 393.076 242.362 392.71 242.079C392.344 241.797 392.081 241.402 391.964 240.955L380.068 195.651C379.711 194.295 379.683 192.873 379.985 191.504C380.286 190.134 380.91 188.857 381.803 187.776C382.697 186.696 383.835 185.843 385.124 185.29C386.412 184.737 387.814 184.499 389.213 184.595L413.923 186.288L412.197 179.385L434.253 177.918L434.318 177.965C434.847 178.35 435.362 178.754 435.853 179.176C437.083 180.216 438.173 181.41 439.097 182.73C440.748 185.097 441.802 187.83 442.166 190.693C442.531 193.557 442.195 196.466 441.189 199.172Z" fill="#444444"/>
<path d="M441.189 199.172C439.977 202.765 437.678 205.891 434.611 208.12C431.544 210.348 427.86 211.568 424.069 211.611C420.444 209.776 416.946 207.701 413.598 205.399L414.015 209.393L417.653 244.384C417.682 244.675 417.651 244.969 417.56 245.247C417.469 245.525 417.321 245.781 417.125 245.998C416.929 246.215 416.69 246.389 416.423 246.508C416.156 246.627 415.867 246.689 415.574 246.69H408.369C407.907 246.69 407.458 246.537 407.092 246.255C406.726 245.973 406.464 245.578 406.346 245.131L402.101 228.963L394.451 199.827C394.094 198.47 394.065 197.049 394.367 195.68C394.669 194.31 395.292 193.032 396.186 191.952C397.08 190.872 398.218 190.019 399.506 189.466C400.795 188.913 402.196 188.674 403.595 188.771L428.305 190.464L426.579 183.56L439.097 182.73C440.748 185.097 441.802 187.83 442.166 190.694C442.531 193.557 442.195 196.467 441.189 199.172Z" fill="#444444"/>
<path d="M435.886 180.776L436.052 180.756L439.9 161.834C439.933 161.67 443.079 145.348 433.434 136.816L433.266 135.648C433.223 135.349 433.116 135.063 432.952 134.81C432.788 134.556 432.57 134.342 432.315 134.18C432.06 134.019 431.773 133.915 431.473 133.875C431.174 133.836 430.87 133.862 430.581 133.951L421.495 136.769C420.981 136.928 420.548 137.279 420.286 137.75C420.025 138.22 419.956 138.774 420.094 139.294L420.978 142.654C419.753 144.092 405.336 161.45 410.358 174.822L412.607 183.615L435.886 180.776Z" fill="#47A138"/>
<path d="M421.851 160.416L432.309 161.764C432.607 161.802 432.909 161.776 433.196 161.687C433.482 161.597 433.746 161.448 433.97 161.247C434.193 161.047 434.371 160.801 434.49 160.526C434.61 160.251 434.669 159.953 434.664 159.653L434.464 149.143C434.652 147.619 434.227 146.083 433.284 144.872C432.341 143.661 430.956 142.873 429.433 142.682C427.91 142.49 426.373 142.91 425.16 143.85C423.946 144.79 423.154 146.172 422.959 147.695L420.109 157.779C420.027 158.067 420.009 158.37 420.055 158.667C420.101 158.963 420.211 159.246 420.376 159.496C420.542 159.747 420.759 159.959 421.013 160.117C421.268 160.276 421.554 160.378 421.851 160.416Z" fill="#47A138"/>
<path d="M443.476 126.442L445.044 128.221L447.117 127.079L447.424 125.329L447.516 124.801L448.036 124.93L448.915 125.148L442.211 112.983C442.21 112.982 442.21 112.981 442.21 112.981C438.764 106.85 434.582 105.013 431.309 104.661C429.658 104.483 428.216 104.681 427.187 104.925C426.673 105.046 426.264 105.178 425.986 105.279C425.847 105.329 425.741 105.371 425.671 105.401C425.636 105.415 425.61 105.426 425.594 105.434L425.577 105.441L425.574 105.443L425.573 105.443L425.573 105.443L425.573 105.443L425.462 105.495L425.338 105.489C421.349 105.3 418.529 106.142 416.531 107.47C414.531 108.798 413.309 110.642 412.567 112.531C411.824 114.425 411.57 116.351 411.503 117.812C411.47 118.541 411.484 119.149 411.506 119.574C411.51 119.66 411.515 119.739 411.52 119.809L425.107 120.426L426.383 118.101L427.001 116.976L427.307 118.222C428.682 123.825 428.154 128.939 427.286 132.646C426.852 134.501 426.332 136.007 425.919 137.052C425.865 137.19 425.812 137.32 425.762 137.442L442.759 129.525L442.602 126.801L442.518 125.355L443.476 126.442Z" stroke="#212121"/>
<path d="M398.645 167.02L398.903 166.951L421.125 160.985L421.403 160.911L421.478 160.633L422.817 155.659L430.302 156.66L428.744 165.955C428.629 166.641 428.295 167.271 427.792 167.75C427.288 168.229 426.643 168.533 425.953 168.614L399.957 171.685L399.679 171.718L399.562 171.973C399.191 172.779 398.584 173.454 397.82 173.906C397.057 174.359 396.174 174.569 395.289 174.508C394.404 174.446 393.558 174.117 392.864 173.563C392.171 173.01 391.662 172.258 391.406 171.408C391.15 170.559 391.159 169.651 391.431 168.807C391.704 167.962 392.227 167.22 392.931 166.68C393.635 166.14 394.487 165.827 395.374 165.783C396.26 165.739 397.139 165.966 397.893 166.434L398.645 167.02ZM398.645 167.02L398.444 166.844C398.271 166.693 398.087 166.556 397.893 166.434L398.645 167.02ZM398.156 166.009V166.009V166.009Z" stroke="#212121"/>
<path d="M164.905 273.195C164.8 272.887 164.623 272.609 164.389 272.384C164.303 272.304 164.209 272.231 164.11 272.168C163.317 271.64 162.133 271.521 161.38 272.168C161.304 272.234 161.234 272.306 161.17 272.384C160.945 272.66 160.715 272.93 160.478 273.195C160.089 273.638 159.691 274.066 159.275 274.482C159.157 274.598 159.038 274.716 158.917 274.831C158.847 274.901 158.777 274.968 158.707 275.035C158.44 275.29 158.167 275.536 157.89 275.779C157.745 275.91 157.599 276.037 157.45 276.162C157.228 276.347 157.007 276.532 156.782 276.711C156.761 276.726 156.739 276.742 156.718 276.76C156.712 276.763 156.709 276.769 156.703 276.772C156.7 276.772 156.697 276.772 156.694 276.778C156.686 276.781 156.678 276.787 156.673 276.793C156.606 276.839 156.56 276.869 156.527 276.896C156.539 276.89 156.551 276.881 156.563 276.875C156.509 276.918 156.451 276.96 156.396 277.003C155.865 277.395 155.321 277.771 154.766 278.123C153.391 279.003 151.946 279.77 150.447 280.416C150.347 280.456 150.244 280.498 150.141 280.538C146.215 282.146 141.957 282.773 137.735 282.366C137.304 282.332 136.873 282.287 136.441 282.229C135.943 282.156 135.448 282.068 134.956 281.968C133.084 281.594 131.251 281.041 129.484 280.316C127.274 279.304 125.172 278.071 123.21 276.635C122.906 276.42 122.6 276.204 122.293 275.995C122.642 275.138 122.985 274.282 123.319 273.419C123.486 273.003 123.647 272.587 123.805 272.168C125.047 268.94 126.214 265.682 127.331 262.411C128.461 259.098 129.527 255.765 130.529 252.414C130.632 252.074 130.732 251.734 130.829 251.393C131.355 249.623 131.859 247.848 132.342 246.07C132.387 245.897 132.436 245.727 132.478 245.554C132.618 245.043 132.755 244.533 132.888 244.023C133.192 242.872 132.506 241.496 131.297 241.22C130.715 241.071 130.098 241.153 129.576 241.45C129.053 241.747 128.667 242.235 128.497 242.811C128.367 243.303 128.236 243.792 128.102 244.284C127.462 246.662 126.787 249.032 126.08 251.393C125.977 251.734 125.873 252.074 125.77 252.414C124.209 257.558 122.495 262.651 120.629 267.692C120.404 268.302 120.176 268.911 119.946 269.517C119.833 269.815 119.721 270.112 119.605 270.41C119.384 270.996 119.156 271.582 118.928 272.168C118.798 272.511 118.664 272.855 118.53 273.195C118.442 273.41 118.357 273.626 118.272 273.838C117.406 273.528 116.509 273.312 115.597 273.195L115.451 273.176C114.744 273.091 114.028 273.097 113.322 273.195C112.266 273.318 111.249 273.672 110.345 274.231C109.44 274.791 108.669 275.542 108.087 276.432C106.638 278.713 106.656 281.974 108.688 283.912C110.78 285.907 113.948 285.892 116.411 284.643C117.716 283.937 118.816 282.906 119.605 281.649C119.908 281.194 120.185 280.722 120.438 280.237C120.501 280.279 120.565 280.322 120.629 280.368C120.872 280.538 121.115 280.711 121.355 280.881C122.752 281.893 124.226 282.798 125.761 283.587C129.063 285.228 132.617 286.303 136.274 286.766C136.356 286.775 136.435 286.787 136.517 286.796C136.921 286.848 137.328 286.888 137.735 286.921C143.573 287.361 149.417 286.166 154.614 283.471C155.054 283.243 155.49 283.005 155.923 282.754C156.594 282.366 157.25 281.953 157.89 281.515C158.24 281.279 158.58 281.039 158.917 280.787C160.39 279.702 161.763 278.487 163.02 277.158C163.496 276.657 163.953 276.139 164.389 275.606C164.802 275.169 165.04 274.597 165.057 273.996C165.055 273.722 165.004 273.451 164.905 273.195ZM114.619 280.428C114.683 280.383 114.747 280.334 114.807 280.286C114.789 280.331 114.701 280.383 114.619 280.428H114.619ZM115.594 279.447C115.524 279.526 115.46 279.605 115.39 279.684C115.178 279.922 114.95 280.145 114.707 280.352C114.674 280.383 114.637 280.413 114.601 280.44C114.6 280.44 114.6 280.441 114.6 280.441C114.599 280.441 114.599 280.441 114.599 280.441C114.598 280.442 114.598 280.442 114.598 280.442C114.598 280.443 114.598 280.443 114.598 280.443C114.554 280.463 114.511 280.485 114.47 280.51C114.34 280.589 114.206 280.662 114.069 280.729C113.802 280.827 113.527 280.904 113.246 280.957C113.031 280.972 112.815 280.974 112.6 280.963H112.593C112.445 280.93 112.298 280.889 112.153 280.841C112.08 280.805 112.01 280.762 111.941 280.72C111.913 280.696 111.889 280.671 111.874 280.656C111.844 280.629 111.817 280.6 111.792 280.568C111.792 280.568 111.792 280.567 111.792 280.567C111.791 280.566 111.791 280.566 111.791 280.566C111.791 280.566 111.79 280.565 111.79 280.565C111.79 280.565 111.789 280.565 111.789 280.565C111.755 280.504 111.719 280.443 111.685 280.383C111.684 280.381 111.683 280.379 111.682 280.377C111.658 280.301 111.637 280.222 111.619 280.143C111.612 280.004 111.613 279.865 111.622 279.727C111.662 279.533 111.717 279.342 111.786 279.156C111.847 279.024 111.917 278.896 111.995 278.773C112.001 278.761 112.032 278.713 112.065 278.658C112.068 278.655 112.068 278.655 112.068 278.652C112.114 278.6 112.159 278.545 112.208 278.497C112.29 278.406 112.378 278.327 112.466 278.245C112.637 278.133 112.815 278.03 112.997 277.938C113.287 277.835 113.585 277.755 113.887 277.698C114.333 277.663 114.781 277.667 115.226 277.71C115.648 277.784 116.064 277.886 116.471 278.017C116.225 278.496 115.943 278.957 115.63 279.396C115.618 279.414 115.606 279.432 115.594 279.447ZM112.217 278.448C112.19 278.491 112.159 278.531 112.123 278.567C112.147 278.522 112.179 278.482 112.217 278.448Z" fill="white"/>
<path d="M155.777 242.179C155.749 243.133 155.722 244.087 155.695 245.04C155.637 247.157 155.577 249.274 155.515 251.393C155.452 253.777 155.385 256.16 155.315 258.542C155.282 259.772 155.247 261.002 155.212 262.231C155.118 265.545 155.024 268.857 154.932 272.168C154.923 272.511 154.911 272.851 154.902 273.194C154.856 274.837 154.811 276.48 154.765 278.123C154.714 279.906 154.663 281.688 154.613 283.471C154.577 284.807 154.54 286.144 154.501 287.483C154.228 297.179 153.955 306.876 153.681 316.572C153.67 317.173 153.426 317.745 153.001 318.17C152.577 318.594 152.004 318.838 151.404 318.85C150.801 318.845 150.225 318.603 149.798 318.177C149.372 317.751 149.131 317.175 149.126 316.572C149.278 311.118 149.432 305.664 149.588 300.21C149.724 295.278 149.863 290.346 150.004 285.414C150.049 283.79 150.095 282.164 150.14 280.537C150.21 278.09 150.279 275.642 150.347 273.194C150.356 272.851 150.368 272.511 150.377 272.168C150.383 271.867 150.392 271.57 150.401 271.269C150.535 266.516 150.669 261.763 150.802 257.008C150.857 255.138 150.91 253.266 150.96 251.393C151.021 249.258 151.082 247.124 151.142 244.992C151.17 244.053 151.194 243.118 151.221 242.179C151.233 241.579 151.477 241.006 151.901 240.582C152.326 240.157 152.899 239.913 153.499 239.902C154.102 239.907 154.678 240.148 155.104 240.574C155.53 241 155.772 241.577 155.777 242.179Z" fill="white"/>
<path d="M280.719 242.811C278.331 251.855 275.477 260.769 272.168 269.517C271.254 271.931 270.32 274.339 269.322 276.718L269.551 276.174C269.105 277.307 268.536 278.388 267.854 279.397C267.807 279.462 267.76 279.526 267.712 279.59C267.948 279.288 267.993 279.229 267.846 279.411C267.769 279.502 267.693 279.594 267.613 279.683C267.401 279.921 267.173 280.145 266.93 280.352C266.869 280.404 266.807 280.455 266.745 280.505L267.029 280.284C266.996 280.362 266.764 280.465 266.692 280.51C266.458 280.651 266.214 280.774 265.962 280.88L266.506 280.65C266.093 280.816 265.661 280.935 265.221 281.002L265.826 280.921C265.394 280.981 264.955 280.986 264.521 280.935L265.127 281.016C264.772 280.968 264.424 280.874 264.093 280.738L264.637 280.968C264.46 280.89 264.289 280.799 264.127 280.695C264.045 280.642 263.791 280.45 264.122 280.703C264.467 280.966 264.167 280.725 264.096 280.656C264.037 280.597 263.984 280.534 263.926 280.475C263.658 280.2 264.228 280.948 264.046 280.626C263.949 280.465 263.86 280.299 263.78 280.129L264.009 280.673C263.905 280.414 263.831 280.144 263.788 279.868L263.87 280.474C263.826 280.13 263.826 279.783 263.869 279.44L263.787 280.045C263.843 279.662 263.944 279.287 264.089 278.928L263.86 279.472C263.961 279.23 264.08 278.997 264.217 278.774C264.281 278.658 264.355 278.549 264.439 278.448C264.454 278.453 264.053 278.908 264.266 278.678C264.321 278.618 264.373 278.555 264.429 278.495C264.519 278.4 264.616 278.313 264.711 278.223C265.028 277.921 264.267 278.516 264.633 278.277C264.898 278.103 265.177 277.95 265.468 277.822L264.923 278.051C265.41 277.852 265.919 277.715 266.44 277.644L265.835 277.726C266.487 277.651 267.147 277.659 267.797 277.749L267.191 277.668C268.015 277.793 268.82 278.019 269.588 278.342L269.044 278.112C270.681 278.815 272.13 279.858 273.577 280.881C274.975 281.893 276.448 282.797 277.983 283.586C281.284 285.228 284.839 286.303 288.497 286.767C293.743 287.409 299.066 286.724 303.979 284.774C308.892 282.824 313.236 279.671 316.613 275.606C317.025 275.169 317.262 274.596 317.28 273.995C317.276 273.392 317.037 272.814 316.613 272.385C315.777 271.618 314.199 271.401 313.392 272.385C312.627 273.318 311.805 274.203 310.93 275.035C310.522 275.422 310.102 275.798 309.672 276.161C309.427 276.369 309.177 276.573 308.925 276.772C308.805 276.867 308.433 277.118 309.005 276.712C308.874 276.805 308.748 276.907 308.619 277.002C306.706 278.412 304.634 279.591 302.445 280.514L302.989 280.285C300.639 281.27 298.172 281.946 295.648 282.296L296.254 282.214C293.658 282.556 291.028 282.552 288.433 282.203L289.038 282.284C286.444 281.928 283.907 281.237 281.49 280.228L282.034 280.458C279.702 279.426 277.488 278.144 275.433 276.634C274.363 275.842 273.235 275.132 272.058 274.51C270.687 273.81 269.202 273.359 267.674 273.177C264.807 272.84 261.886 273.957 260.311 276.433C258.86 278.712 258.879 281.973 260.91 283.911C263.002 285.907 266.169 285.89 268.634 284.642C271.008 283.439 272.434 280.941 273.437 278.586C275.694 273.285 277.692 267.862 279.553 262.411C281.395 257.018 283.065 251.571 284.563 246.069C284.749 245.387 284.932 244.705 285.112 244.022C285.416 242.872 284.729 241.496 283.521 241.221C282.939 241.071 282.322 241.153 281.799 241.45C281.276 241.747 280.889 242.235 280.719 242.811L280.719 242.811Z" fill="white"/>
<path d="M303.445 242.179L302.625 271.27L301.809 300.209L301.348 316.572C301.353 317.175 301.595 317.751 302.021 318.177C302.447 318.603 303.023 318.845 303.626 318.85C304.226 318.838 304.799 318.595 305.223 318.17C305.648 317.745 305.892 317.173 305.903 316.572L306.723 287.482L307.539 258.543L308 242.179C307.995 241.577 307.753 241.001 307.327 240.575C306.901 240.149 306.325 239.907 305.722 239.902C305.122 239.913 304.549 240.157 304.125 240.582C303.7 241.006 303.456 241.579 303.445 242.179Z" fill="white"/>
<path d="M221.311 294.982C220.125 300.352 217.283 305.198 213.199 308.818C212.9 309.081 212.601 309.335 212.289 309.586C211.532 309.656 210.781 309.727 210.036 309.799C209.417 309.857 208.806 309.918 208.199 309.976L208.09 309.988L208.013 309.315L207.705 306.589C206.512 304.612 205.773 302.389 205.542 300.084C205.311 297.778 205.594 295.449 206.37 293.27C207.438 290.347 209.372 287.764 211.274 285.202C213.899 281.663 216.452 278.165 216.545 273.85C217.837 275.528 218.911 277.367 219.741 279.323C218.958 279.697 218.254 280.223 217.67 280.871C217.504 281.055 217.338 281.314 217.451 281.536C217.548 281.725 217.791 281.77 218.001 281.795C218.507 281.848 219.017 281.901 219.523 281.955C219.927 282 220.332 282.041 220.736 282.086C221.226 283.716 221.558 285.391 221.728 287.087C222 289.724 221.86 292.389 221.311 294.982Z" fill="white"/>
<path d="M234.922 284.21C232.519 285.953 231.114 288.458 230.023 291.22C228.904 291.577 227.898 292.218 227.103 293.08C226.936 293.262 226.769 293.518 226.883 293.737C226.98 293.924 227.225 293.969 227.437 293.993C227.946 294.046 228.459 294.099 228.968 294.152C227.876 297.417 226.875 300.795 224.944 303.553C223.66 305.373 221.987 306.887 220.045 307.983C219.515 308.284 218.968 308.554 218.407 308.792C216.339 308.95 214.309 309.119 212.319 309.299C211.557 309.368 210.801 309.439 210.05 309.51C209.427 309.567 208.812 309.628 208.201 309.685C208.197 309.462 208.197 309.238 208.201 309.015C208.33 303.065 210.525 297.344 214.412 292.828C214.595 292.617 214.783 292.41 214.974 292.202C216.943 290.105 219.259 288.361 221.82 287.045C225.856 284.953 230.38 283.974 234.922 284.21Z" fill="#47A138"/>
<path d="M210.668 307.501L210.2 308.887L209.964 309.593C209.342 309.65 208.728 309.711 208.118 309.768L208.008 309.78C207.333 309.849 206.662 309.919 205.991 309.988C205.816 309.784 205.641 309.576 205.47 309.364C201.225 304.211 199.187 297.583 199.802 290.928C200.417 284.274 203.635 278.134 208.752 273.85C208.215 276.667 208.842 279.366 209.871 282.045C209.761 282.09 209.655 282.134 209.553 282.183C208.766 282.555 208.059 283.077 207.471 283.72C207.304 283.904 207.137 284.161 207.251 284.381C207.349 284.568 207.593 284.613 207.805 284.638C208.313 284.691 208.825 284.744 209.334 284.797C209.741 284.841 210.147 284.882 210.554 284.927C210.745 284.947 210.936 284.968 211.127 284.988C211.156 285.049 211.18 285.107 211.209 285.168C212.368 287.687 213.617 290.219 214.32 292.845C214.497 293.503 214.635 294.172 214.735 294.846C215.048 297.126 214.845 299.448 214.141 301.639C213.437 303.829 212.25 305.833 210.668 307.501Z" fill="#47A138"/>
<path d="M242.92 264.151C240.306 259.052 236.256 254.761 231.492 251.608C226.713 248.46 221.229 246.542 215.53 246.027C214.783 245.959 214.034 245.919 213.283 245.907C212.396 245.894 199.051 249.743 194.58 252.886C190.112 255.991 186.437 260.103 183.85 264.89C181.268 269.703 179.998 275.111 180.168 280.57C180.389 286.062 181.92 291.422 184.633 296.202C187.308 300.967 191.108 305.006 195.7 307.969C200.358 310.941 205.037 318.821 210.536 319.099C216.077 319.379 222.396 311.946 227.45 309.689C232.503 307.413 236.872 303.853 240.121 299.362C243.278 294.962 245.32 289.861 246.073 284.498C246.854 279.006 246.49 273.343 244.615 268.094C244.134 266.745 243.568 265.428 242.92 264.151C242.38 263.087 240.796 262.695 239.804 263.334C239.293 263.649 238.923 264.148 238.771 264.729C238.619 265.309 238.696 265.926 238.987 266.45C239.304 267.075 239.599 267.711 239.872 268.357L239.643 267.813C240.675 270.295 241.377 272.903 241.731 275.568L241.65 274.963C242.026 277.854 242.019 280.783 241.629 283.673L241.711 283.067C241.317 285.957 240.546 288.783 239.417 291.472L239.646 290.928C239.065 292.299 238.388 293.629 237.62 294.905C237.231 295.55 236.818 296.18 236.381 296.795C236.189 297.064 235.991 297.329 235.792 297.594C235.532 297.938 236.147 297.143 235.878 297.481C235.832 297.539 235.787 297.597 235.741 297.654C235.603 297.827 235.463 297.998 235.321 298.167C234.374 299.296 233.341 300.351 232.231 301.32C231.954 301.562 231.673 301.798 231.387 302.028C231.245 302.143 231.104 302.263 230.956 302.37C230.961 302.366 231.435 302.005 231.155 302.214C231.066 302.28 230.979 302.347 230.891 302.412C230.301 302.849 229.697 303.263 229.076 303.655C227.648 304.555 226.149 305.338 224.595 305.997L225.139 305.768C222.459 306.896 219.641 307.667 216.759 308.061L217.364 307.98C214.484 308.369 211.564 308.374 208.682 307.995L209.288 308.076C206.669 307.725 204.107 307.032 201.667 306.016L202.211 306.246C200.798 305.649 199.435 304.939 198.137 304.123C197.494 303.718 196.868 303.288 196.259 302.833C196.172 302.768 196.086 302.702 195.999 302.637C195.721 302.427 196.199 302.792 196.203 302.794C196.041 302.678 195.886 302.554 195.737 302.422C195.442 302.183 195.153 301.937 194.868 301.687C193.727 300.682 192.662 299.595 191.681 298.434C191.436 298.144 191.195 297.85 190.96 297.551C190.858 297.421 190.673 297.159 191.083 297.711C191.029 297.638 190.973 297.567 190.918 297.495C190.788 297.321 190.658 297.146 190.531 296.97C190.085 296.353 189.661 295.721 189.259 295.073C188.351 293.608 187.559 292.074 186.889 290.485L187.119 291.029C186.023 288.422 185.273 285.682 184.889 282.88L184.971 283.485C184.625 280.902 184.62 278.284 184.956 275.7L184.875 276.305C185.22 273.803 185.893 271.356 186.877 269.029L186.648 269.573C187.267 268.117 187.998 266.71 188.833 265.366C189.251 264.693 189.694 264.036 190.162 263.396C190.269 263.251 190.376 263.106 190.485 262.963C190.583 262.833 190.854 262.509 190.392 263.081C190.437 263.025 190.481 262.967 190.526 262.911C190.782 262.585 191.046 262.265 191.315 261.949C192.335 260.756 193.439 259.637 194.62 258.603C194.918 258.341 195.222 258.085 195.529 257.835C195.669 257.721 195.81 257.608 195.952 257.497C196.009 257.452 196.066 257.408 196.122 257.363C195.516 257.846 195.954 257.495 196.092 257.392C196.726 256.916 197.378 256.465 198.046 256.037C199.532 255.087 201.095 254.263 202.718 253.575L202.174 253.804C204.531 252.815 214.972 250.479 216.871 250.734L216.265 250.653C219.056 251.042 221.784 251.796 224.38 252.895L223.835 252.665C225.151 253.223 226.429 253.865 227.662 254.587C228.278 254.948 228.882 255.329 229.474 255.73C229.754 255.919 230.031 256.113 230.306 256.311C230.443 256.41 230.579 256.51 230.714 256.611C230.79 256.668 230.864 256.725 230.94 256.781C231.255 257.018 230.505 256.438 230.836 256.7C231.943 257.57 232.994 258.508 233.984 259.51C234.47 260.005 234.94 260.516 235.392 261.042C235.624 261.312 235.852 261.586 236.074 261.864C236.185 262.003 236.562 262.502 236.1 261.89C236.213 262.04 236.327 262.188 236.439 262.339C237.398 263.638 238.25 265.013 238.987 266.45C239.531 267.513 241.109 267.909 242.103 267.267C242.614 266.953 242.984 266.454 243.137 265.873C243.289 265.293 243.211 264.676 242.92 264.151Z" fill="white"/>
<path d="M113.966 282.353C115.811 282.353 117.307 280.858 117.307 279.013C117.307 277.168 115.811 275.672 113.966 275.672C112.122 275.672 110.626 277.168 110.626 279.013C110.626 280.858 112.122 282.353 113.966 282.353Z" fill="white"/>
<path d="M154.052 318.794C155.897 318.794 157.392 317.299 157.392 315.454C157.392 313.609 155.897 312.113 154.052 312.113C152.207 312.113 150.711 313.609 150.711 315.454C150.711 317.299 152.207 318.794 154.052 318.794Z" fill="white"/>
<path d="M306.196 318.794C308.041 318.794 309.537 317.299 309.537 315.454C309.537 313.609 308.041 312.113 306.196 312.113C304.351 312.113 302.856 313.609 302.856 315.454C302.856 317.299 304.351 318.794 306.196 318.794Z" fill="white"/>
<path d="M314.395 276.28C316.24 276.28 317.735 274.784 317.735 272.939C317.735 271.094 316.24 269.599 314.395 269.599C312.55 269.599 311.054 271.094 311.054 272.939C311.054 274.784 312.55 276.28 314.395 276.28Z" fill="white"/>
<path d="M304.677 245.305C306.522 245.305 308.018 243.809 308.018 241.964C308.018 240.119 306.522 238.624 304.677 238.624C302.833 238.624 301.337 240.119 301.337 241.964C301.337 243.809 302.833 245.305 304.677 245.305Z" fill="white"/>
<path d="M165.288 272.94C165.286 273.793 164.956 274.613 164.366 275.23C163.777 275.846 162.972 276.213 162.12 276.253C161.268 276.294 160.433 276.005 159.787 275.446C159.142 274.888 158.736 274.103 158.654 273.254C158.571 272.404 158.818 271.556 159.344 270.884C159.869 270.212 160.633 269.767 161.477 269.643C162.322 269.518 163.181 269.723 163.879 270.214C164.576 270.706 165.058 271.447 165.224 272.284C165.267 272.5 165.288 272.72 165.288 272.94Z" fill="white"/>
<path d="M155.874 241.964C155.872 242.817 155.542 243.637 154.952 244.254C154.363 244.871 153.558 245.237 152.706 245.278C151.854 245.318 151.018 245.029 150.373 244.471C149.728 243.912 149.322 243.127 149.239 242.278C149.157 241.429 149.404 240.58 149.93 239.908C150.455 239.236 151.219 238.792 152.063 238.667C152.907 238.542 153.767 238.747 154.465 239.239C155.162 239.73 155.644 240.471 155.81 241.308C155.853 241.524 155.874 241.744 155.874 241.964Z" fill="white"/>
<path d="M267.021 283.568C268.866 283.568 270.362 282.073 270.362 280.228C270.362 278.383 268.866 276.887 267.021 276.887C265.176 276.887 263.681 278.383 263.681 280.228C263.681 282.073 265.176 283.568 267.021 283.568Z" fill="white"/>
</svg>
