<svg width="608" height="370" viewBox="0 0 608 370" fill="none" xmlns="http://www.w3.org/2000/svg">
<path d="M345.053 333.117L366.299 327.418C365.799 333.889 364.446 339.961 361.826 344.968C355.68 356.716 348.084 362.741 339.94 364.748C331.782 366.758 322.97 364.762 314.351 360.253C305.732 355.744 299.067 349.643 296.067 341.794C293.071 333.96 293.689 324.285 299.836 312.536C302.884 306.71 308.092 301.469 314.228 296.881C320.359 292.295 327.389 288.383 334.045 285.202C340.699 282.023 346.969 279.58 351.576 277.932C353.879 277.108 355.766 276.484 357.076 276.065C357.731 275.856 358.242 275.698 358.588 275.593C358.61 275.586 358.632 275.58 358.652 275.573C358.7 275.72 358.758 275.9 358.825 276.113C359.031 276.766 359.327 277.724 359.684 278.942C360.398 281.377 361.355 284.851 362.327 289C364.254 297.228 366.236 308.094 366.501 318.778L344.662 332.208L345.053 333.117Z" stroke="#FF5031"/>
<path d="M316.546 360.103C324.801 355.056 332.552 345.77 339.679 332.315C339.679 332.314 339.679 332.314 339.679 332.314L340.288 331.151C340.288 331.151 340.288 331.151 340.288 331.15C342.694 326.506 345.02 321.39 347.267 315.804L347.269 315.8C347.432 315.405 347.592 315.001 347.747 314.594L347.75 314.586L347.75 314.586C348.278 313.269 348.797 311.926 349.308 310.557L349.308 310.556C351.352 305.105 353.103 299.807 354.568 295.012L354.569 295.009C354.649 294.753 354.726 294.498 354.802 294.245C354.85 294.086 354.898 293.928 354.946 293.769C357.651 284.766 359.291 277.728 359.868 275.125L359.868 275.123C359.923 274.882 359.968 274.679 360.003 274.516L359.983 274.512L359.975 274.514L359.848 274.488L359.701 274.457C359.281 276.389 357.607 283.802 354.65 293.584C354.529 293.999 354.404 294.422 354.273 294.842C354.272 294.843 354.272 294.843 354.272 294.843L353.795 294.695C351.98 300.611 349.716 307.33 347 314.181L316.546 360.103ZM316.546 360.103L316.465 359.968L316.461 359.963L316.391 359.843C325.513 354.263 333.139 343.852 339.31 332.21C339.514 331.834 339.725 331.445 339.924 331.049L316.546 360.103Z" fill="white" stroke="#FF5031"/>
<path d="M353.985 293.906C354.413 294.077 354.84 294.233 355.254 294.383L355.254 294.384L355.258 294.385C358.417 295.501 361.718 296.163 365.061 296.351C365.08 296.454 365.098 296.557 365.117 296.66C361.739 296.478 358.404 295.814 355.213 294.686L355.21 294.685C354.798 294.542 354.385 294.392 353.98 294.23L353.979 294.229C352.775 293.754 351.598 293.216 350.452 292.617L350.452 292.616C345.802 290.19 341.744 286.772 338.564 282.607C338.658 282.566 338.752 282.524 338.846 282.482C341.995 286.586 346.004 289.954 350.593 292.347C351.697 292.924 352.829 293.444 353.985 293.906ZM353.985 293.906C353.985 293.906 353.986 293.906 353.986 293.906L354.171 293.441L353.985 293.906C353.985 293.906 353.985 293.906 353.985 293.906Z" fill="white" stroke="#FF5031"/>
<path d="M367.493 318.201C367.495 318.303 367.497 318.406 367.498 318.508C360.833 319.374 354.055 318.346 347.942 315.537C347.539 315.348 347.139 315.153 346.737 314.95L346.737 314.95L346.727 314.945C346.572 314.871 346.418 314.79 346.255 314.705C341.19 312.055 336.829 308.236 333.534 303.565C330.304 298.987 328.189 293.72 327.355 288.183C327.449 288.131 327.544 288.079 327.639 288.028C328.441 293.472 330.494 298.661 333.639 303.186C336.922 307.91 341.299 311.769 346.396 314.436L346.399 314.437C346.515 314.498 346.647 314.567 346.779 314.629C347.182 314.839 347.591 315.039 348.007 315.226C354.093 318.042 360.851 319.072 367.493 318.201Z" fill="white" stroke="#FF5031"/>
<path d="M340.538 331.841C348.804 335.351 358.08 335.608 366.513 332.583C366.492 332.696 366.471 332.808 366.45 332.92C357.947 335.931 348.62 335.636 340.32 332.089C339.905 331.908 339.496 331.723 339.088 331.524L339.088 331.524L339.077 331.519C338.649 331.323 338.221 331.107 337.792 330.882C331.079 327.361 325.646 321.814 322.265 315.029C318.916 308.307 317.75 300.71 318.925 293.297C319.038 293.221 319.15 293.145 319.263 293.07C318.063 300.288 319.105 307.711 322.263 314.333C325.59 321.31 331.087 327.021 337.932 330.613L337.933 330.613C338.374 330.844 338.819 331.062 339.265 331.273L339.267 331.274C339.684 331.47 340.107 331.661 340.538 331.841ZM340.538 331.841C340.537 331.841 340.537 331.841 340.537 331.841L340.732 331.381L340.539 331.842C340.539 331.842 340.538 331.842 340.538 331.841ZM367.154 331.81C366.973 331.88 366.793 331.948 366.612 332.015L367.056 332.383C367.081 332.237 367.106 332.091 367.131 331.944C367.138 331.899 367.146 331.855 367.154 331.81Z" fill="white" stroke="#FF5031"/>
<path d="M86.9464 278.166C87.0137 277.953 87.0715 277.773 87.1188 277.627C87.1395 277.633 87.1609 277.639 87.183 277.646C87.5296 277.751 88.0403 277.909 88.6953 278.118C90.0052 278.537 91.8918 279.162 94.1949 279.985C98.8019 281.633 105.072 284.076 111.726 287.255C118.382 290.436 125.412 294.349 131.544 298.934C137.679 303.522 142.887 308.763 145.936 314.59C152.082 326.338 152.7 336.013 149.705 343.847C146.704 351.696 140.039 357.797 131.42 362.306C122.802 366.815 113.989 368.811 105.831 366.801C97.6872 364.794 90.0915 358.769 83.9452 347.021C81.3257 342.014 79.9726 335.943 79.4718 329.471L100.718 335.17L101.11 334.262L79.2702 320.832C79.5354 310.147 81.5171 299.281 83.4444 291.053C84.4163 286.904 85.3732 283.431 86.087 280.995C86.4438 279.777 86.7398 278.819 86.9464 278.166Z" stroke="#FF5031"/>
<path d="M90.3463 295.968C90.3936 296.122 90.441 296.279 90.4887 296.438C90.5661 296.694 90.6444 296.953 90.725 297.212C92.1927 302.015 93.9467 307.323 95.9953 312.785C96.5076 314.158 97.0281 315.505 97.5569 316.825C97.7132 317.237 97.8753 317.645 98.0401 318.044C100.292 323.643 102.625 328.774 105.039 333.435M90.3463 295.968L90.8251 295.824C90.825 295.823 90.8249 295.823 90.8248 295.823M90.3463 295.968L90.8244 295.821C90.8246 295.822 90.8247 295.822 90.8248 295.823M90.3463 295.968C87.6375 286.95 85.9943 279.899 85.4156 277.287C85.2883 276.728 85.2154 276.372 85.1883 276.24C85.1863 276.23 85.1845 276.222 85.183 276.214L91.4987 296.896M90.8248 295.823C90.8732 295.981 90.9209 296.139 90.9686 296.297C91.0453 296.551 91.1222 296.806 91.2023 297.063L91.2031 297.066C92.6685 301.861 94.4192 307.159 96.4634 312.61L96.4637 312.611C96.9747 313.98 97.4938 315.323 98.021 316.639L98.0243 316.648L98.0243 316.648C98.1789 317.054 98.3392 317.458 98.5023 317.854L98.504 317.858C100.751 323.444 103.077 328.559 105.483 333.203L105.482 333.203L105.039 333.435M90.8248 295.823C88.1206 286.82 86.4805 279.782 85.9037 277.179L85.9037 277.179L85.9031 277.176C85.8482 276.935 85.8036 276.732 85.7685 276.57L85.7882 276.565L85.7963 276.568L85.9234 276.542L86.0703 276.511C86.4898 278.443 88.1645 285.855 91.1212 295.638C91.2424 296.052 91.3675 296.475 91.4987 296.896M105.039 333.435L105.483 333.205M105.039 333.435L105.65 334.602M105.483 333.205L91.9764 296.748C93.7912 302.665 96.0553 309.384 98.771 316.234C98.933 316.643 99.0951 317.051 99.2599 317.45C101.344 322.63 103.689 327.857 106.292 332.875C106.489 333.265 106.697 333.649 106.902 334.027C113.156 345.827 120.87 356.281 130.061 361.723L129.738 362.275L129.654 362.415C129.59 362.375 129.527 362.338 129.47 362.305L129.467 362.303C129.405 362.266 129.35 362.234 129.297 362.2L129.297 362.2L129.29 362.196C129.269 362.183 129.247 362.17 129.226 362.157M105.483 333.205L106.092 334.368L105.65 334.602M105.483 333.205L91.4987 296.896M105.65 334.602C112.799 348.098 120.603 357.472 128.968 362.585L129.226 362.157M105.65 334.602L106.093 334.37L106.092 334.369C113.22 347.824 120.97 357.109 129.226 362.157M129.226 362.157L129.307 362.022L129.31 362.017L129.38 361.897C120.258 356.317 112.632 345.905 106.462 334.264C106.258 333.888 106.047 333.499 105.847 333.103C103.236 328.069 100.885 322.829 98.7969 317.639C98.631 317.237 98.4681 316.826 98.3066 316.42L98.3062 316.419L98.3062 316.419C95.5847 309.553 93.3163 302.822 91.4987 296.896M129.06 362.641L129.184 362.716C129.142 362.692 129.101 362.667 129.06 362.641Z" fill="white" stroke="#FF5031"/>
<path d="M80.6546 298.714C80.6243 298.881 80.5936 299.05 80.5625 299.22C84.0283 299.044 87.4514 298.368 90.7252 297.211C91.1425 297.067 91.5625 296.913 91.9766 296.748C93.1961 296.267 94.3894 295.721 95.5514 295.113C100.302 292.634 104.442 289.135 107.677 284.869C107.52 284.8 107.363 284.73 107.207 284.661M80.6546 298.714C84.0321 298.532 87.3673 297.867 90.5586 296.74L90.5613 296.739L90.5613 296.739C90.9735 296.596 91.3862 296.445 91.7914 296.284L91.7929 296.283C92.9961 295.808 94.1733 295.27 95.3197 294.67L95.32 294.67C99.97 292.244 104.027 288.826 107.207 284.661M80.6546 298.714C80.4838 298.723 80.313 298.731 80.142 298.738C80.1919 298.464 80.2406 298.193 80.2884 297.925M80.6546 298.714C80.6733 298.61 80.692 298.507 80.7105 298.404M107.207 284.661C107.311 284.525 107.414 284.388 107.516 284.251C107.276 284.144 107.037 284.038 106.799 283.932L106.767 283.918M107.207 284.661C107.113 284.619 107.019 284.578 106.926 284.536M106.926 284.536C107.007 284.43 107.087 284.324 107.167 284.218L106.767 283.918M106.926 284.536C106.816 284.487 106.706 284.438 106.596 284.389L106.564 284.375L106.767 283.918M106.926 284.536C103.777 288.64 99.7679 292.008 95.1783 294.401M106.767 283.918C103.627 288.107 99.5882 291.537 94.9468 293.958M94.9468 293.958L95.1785 294.401C95.1785 294.401 95.1784 294.401 95.1783 294.401M94.9468 293.958C93.8584 294.527 92.7415 295.04 91.6006 295.495M94.9468 293.958L95.178 294.401C95.1781 294.401 95.1782 294.401 95.1783 294.401M95.1783 294.401C94.0749 294.978 92.9427 295.498 91.7862 295.959M91.6006 295.495L91.7866 295.959C91.7864 295.959 91.7863 295.959 91.7862 295.959M91.6006 295.495C91.1808 295.663 90.7607 295.817 90.3465 295.967C87.1085 297.112 83.7192 297.771 80.2884 297.925M91.6006 295.495L91.7858 295.96C91.7859 295.959 91.786 295.959 91.7862 295.959M91.7862 295.959C91.358 296.131 90.931 296.287 90.5172 296.437L90.5131 296.439L90.5131 296.439C87.3545 297.555 84.0539 298.217 80.7105 298.404M80.7105 298.404C80.7341 298.273 80.7575 298.143 80.7806 298.013L80.2884 297.925M80.7105 298.404C80.5773 298.412 80.4441 298.419 80.3107 298.425L80.2884 297.925" fill="white" stroke="#FF5031"/>
<path d="M118.133 290.081C118.227 290.133 118.322 290.185 118.416 290.237C117.582 295.773 115.467 301.041 112.238 305.619C108.942 310.29 104.582 314.109 99.5164 316.759C99.3533 316.844 99.1995 316.925 99.0441 316.999L99.044 316.999L99.0345 317.004C98.632 317.207 98.2323 317.402 97.8295 317.591C91.7166 320.4 84.9385 321.428 78.2729 320.562C78.2746 320.459 78.2764 320.357 78.2784 320.254C84.9205 321.125 91.6778 320.096 97.7646 317.28C98.1799 317.092 98.5892 316.893 98.9924 316.682C99.1247 316.621 99.2572 316.551 99.3728 316.491L99.3755 316.489C104.473 313.823 108.849 309.963 112.133 305.24C115.278 300.715 117.33 295.526 118.133 290.081Z" fill="white" stroke="#FF5031"/>
<path d="M106.695 333.572L106.695 333.572C107.123 333.377 107.55 333.161 107.98 332.936C114.693 329.415 120.126 323.867 123.506 317.083C126.855 310.361 128.022 302.764 126.846 295.35C126.734 295.274 126.621 295.199 126.508 295.124C127.708 302.342 126.667 309.765 123.509 316.387C120.182 323.364 114.684 329.075 107.839 332.666L107.839 332.667C107.398 332.897 106.952 333.115 106.506 333.327L106.505 333.327C106.087 333.523 105.664 333.715 105.234 333.895C105.233 333.895 105.233 333.895 105.233 333.896L106.695 333.572ZM106.695 333.572L106.683 333.578C106.276 333.776 105.867 333.962 105.452 334.142L106.695 333.572Z" fill="white" stroke="#FF5031"/>
<path d="M186.687 315.299C186.701 315.253 186.715 315.209 186.728 315.168C186.921 315.227 187.171 315.305 187.473 315.402C188.251 315.65 189.372 316.022 190.741 316.511C193.479 317.491 197.205 318.942 201.159 320.831C205.114 322.721 209.286 325.044 212.922 327.763C216.563 330.485 219.637 333.584 221.432 337.015C225.072 343.973 225.423 349.671 223.666 354.267C221.904 358.877 217.982 362.478 212.876 365.149C207.771 367.82 202.577 368.989 197.785 367.808C193.007 366.63 188.526 363.093 184.886 356.135C183.382 353.26 182.583 349.779 182.269 346.051L194.64 349.369L195.031 348.46L182.129 340.526C182.298 334.223 183.467 327.818 184.606 322.956C185.183 320.49 185.752 318.426 186.176 316.979C186.388 316.255 186.564 315.686 186.687 315.299Z" stroke="#FF5031"/>
<path d="M197.265 348.141L197.628 348.836C201.895 356.89 206.553 362.479 211.547 365.517C211.619 365.563 211.693 365.603 211.765 365.649L211.969 365.31L212.161 364.982C206.689 361.742 202.097 355.518 198.374 348.494C198.252 348.268 198.128 348.04 198.011 347.808C196.461 344.82 195.065 341.708 193.824 338.625C193.726 338.387 193.63 338.144 193.533 337.901C191.916 333.823 190.568 329.823 189.488 326.301C189.411 326.052 189.337 325.802 189.264 325.555C187.46 319.585 186.459 315.102 186.245 314.105C186.216 313.984 186.203 313.917 186.199 313.901L185.824 313.979L185.819 313.978L185.44 314.058C185.444 314.073 185.488 314.3 185.582 314.715C185.927 316.269 186.905 320.467 188.518 325.836C188.592 326.077 188.666 326.328 188.743 326.576C189.617 329.436 190.661 332.596 191.881 335.848C192.186 336.665 192.495 337.467 192.81 338.253C192.903 338.498 193 338.741 193.098 338.979C194.439 342.312 195.828 345.366 197.265 348.141Z" fill="#FF5031"/>
<path d="M182.53 327.001C182.484 327.257 182.437 327.518 182.388 327.784C184.555 327.706 186.698 327.298 188.743 326.576C188.992 326.489 189.242 326.398 189.488 326.3C190.214 326.013 190.925 325.688 191.616 325.327C194.535 323.804 197.066 321.634 199.018 318.983C198.773 318.875 198.533 318.768 198.293 318.662C196.424 321.155 194.02 323.198 191.256 324.639C190.608 324.978 189.944 325.283 189.264 325.554C189.014 325.654 188.764 325.745 188.518 325.835C186.59 326.516 184.572 326.909 182.53 327.001Z" fill="#FF5031"/>
<path d="M181.043 339.952C181.036 340.215 181.032 340.475 181.028 340.736C185.137 341.321 189.327 340.711 193.098 338.978C193.341 338.864 193.582 338.746 193.824 338.624C193.922 338.577 194.019 338.527 194.115 338.476C197.172 336.877 199.804 334.572 201.793 331.752C203.782 328.932 205.071 325.68 205.553 322.263C205.311 322.127 205.067 321.996 204.823 321.865C204.399 325.215 203.17 328.412 201.243 331.185C199.316 333.958 196.747 336.223 193.755 337.788C193.683 337.826 193.607 337.866 193.533 337.9C193.296 338.024 193.055 338.141 192.81 338.252C189.137 339.952 185.048 340.543 181.043 339.952Z" fill="#FF5031"/>
<path d="M181.535 348.396C181.586 348.694 181.635 348.988 181.696 349.281C186.871 351.158 192.566 350.999 197.628 348.835C197.878 348.727 198.126 348.614 198.374 348.493C198.635 348.374 198.895 348.243 199.153 348.108C203.205 345.982 206.484 342.634 208.525 338.539C210.565 334.443 211.264 329.809 210.52 325.294C210.226 325.093 209.928 324.899 209.627 324.701C210.518 329.15 209.944 333.768 207.991 337.864C206.038 341.959 202.811 345.312 198.793 347.42C198.535 347.555 198.274 347.683 198.01 347.807C197.764 347.923 197.516 348.035 197.265 348.141C192.254 350.268 186.612 350.36 181.535 348.396Z" fill="#FF5031"/>
<path d="M442.432 226.885L442.376 226.88C431.994 225.166 420.461 225.166 407.118 226.882H407.113C406.78 226.886 406.45 226.824 406.141 226.7C405.832 226.575 405.551 226.391 405.314 226.158C405.076 225.924 404.888 225.646 404.758 225.339C404.629 225.032 404.562 224.703 404.56 224.37V212.286C404.561 211.62 404.826 210.981 405.298 210.509C405.769 210.038 406.408 209.773 407.075 209.772C418.825 208.24 430.724 208.241 442.474 209.775H442.479C443.138 209.784 443.766 210.053 444.228 210.524C444.69 210.994 444.948 211.627 444.946 212.286V224.37C444.946 225.037 444.68 225.676 444.209 226.147C443.738 226.619 443.098 226.884 442.432 226.885Z" fill="white"/>
<path d="M442.432 226.885L442.376 226.88C431.994 225.166 420.461 225.166 407.118 226.882H407.113C406.78 226.886 406.45 226.824 406.141 226.7C405.832 226.575 405.551 226.391 405.314 226.158C405.076 225.924 404.888 225.646 404.758 225.339C404.629 225.032 404.562 224.703 404.56 224.37V212.286C404.561 211.62 404.826 210.981 405.298 210.509C405.769 210.038 406.408 209.773 407.075 209.772C418.825 208.24 430.724 208.241 442.474 209.775H442.479C443.138 209.784 443.766 210.053 444.228 210.524C444.69 210.994 444.948 211.627 444.946 212.286V224.37C444.946 225.037 444.68 225.676 444.209 226.147C443.738 226.619 443.098 226.884 442.432 226.885ZM424.304 209.31C418.557 209.299 412.816 209.681 407.121 210.453C406.877 210.449 406.635 210.494 406.409 210.584C406.182 210.674 405.976 210.808 405.801 210.979C405.627 211.149 405.488 211.353 405.392 211.577C405.297 211.801 405.247 212.042 405.245 212.286V224.37C405.245 224.855 405.438 225.32 405.781 225.664C406.124 226.007 406.59 226.2 407.075 226.2C420.429 224.48 432.018 224.48 442.459 226.2C442.939 226.192 443.397 225.996 443.735 225.654C444.072 225.312 444.261 224.851 444.262 224.37V212.286C444.261 211.801 444.068 211.336 443.725 210.993C443.382 210.65 442.917 210.457 442.432 210.456C436.419 209.702 430.365 209.319 424.304 209.31Z" fill="#47A138"/>
<path d="M424.753 222.544C427.4 222.544 429.545 220.398 429.545 217.752C429.545 215.106 427.4 212.96 424.753 212.96C422.107 212.96 419.962 215.106 419.962 217.752C419.962 220.398 422.107 222.544 424.753 222.544Z" fill="#47A138"/>
<path d="M412.432 215.248H408.325C408.053 215.248 407.792 215.14 407.599 214.947C407.407 214.755 407.299 214.494 407.298 214.221V212.852C407.299 212.58 407.407 212.319 407.599 212.127C407.792 211.934 408.053 211.826 408.325 211.826H412.432C412.704 211.826 412.965 211.934 413.158 212.127C413.35 212.319 413.459 212.58 413.459 212.852V214.221C413.459 214.494 413.35 214.755 413.158 214.947C412.965 215.14 412.704 215.248 412.432 215.248Z" fill="#47A138"/>
<path d="M441.182 224.831H437.075C436.802 224.831 436.541 224.723 436.349 224.53C436.156 224.338 436.048 224.077 436.048 223.804V222.435C436.048 222.163 436.156 221.902 436.349 221.71C436.541 221.517 436.802 221.409 437.075 221.409H441.182C441.454 221.409 441.715 221.517 441.907 221.71C442.1 221.902 442.208 222.163 442.208 222.435V223.804C442.208 224.077 442.1 224.338 441.907 224.53C441.715 224.723 441.454 224.831 441.182 224.831Z" fill="#47A138"/>
<path d="M436.588 221.887L436.539 221.861C427.641 216.245 417.016 211.76 404.056 208.152L404.051 208.15C403.743 208.024 403.462 207.839 403.226 207.604C402.99 207.369 402.803 207.09 402.675 206.783C402.547 206.475 402.481 206.146 402.481 205.813C402.482 205.48 402.548 205.15 402.676 204.843L407.375 193.711C407.635 193.097 408.128 192.611 408.745 192.36C409.363 192.109 410.055 192.113 410.669 192.372C422.09 195.53 433.053 200.158 443.281 206.141L443.285 206.142C443.889 206.408 444.363 206.9 444.606 207.513C444.849 208.126 444.84 208.81 444.582 209.416L439.883 220.549C439.623 221.163 439.13 221.648 438.512 221.899C437.895 222.15 437.203 222.146 436.588 221.887Z" fill="white"/>
<path d="M436.588 221.887L436.539 221.861C427.641 216.245 417.016 211.76 404.056 208.152L404.051 208.15C403.743 208.024 403.462 207.839 403.226 207.604C402.99 207.369 402.803 207.09 402.675 206.783C402.547 206.475 402.481 206.146 402.481 205.813C402.482 205.48 402.548 205.15 402.676 204.843L407.375 193.711C407.635 193.097 408.128 192.611 408.745 192.36C409.363 192.109 410.055 192.113 410.669 192.372C422.09 195.53 433.053 200.158 443.281 206.141L443.285 206.142C443.889 206.408 444.363 206.9 444.606 207.513C444.849 208.126 444.84 208.81 444.582 209.416L439.883 220.549C439.623 221.163 439.13 221.648 438.512 221.899C437.895 222.15 437.203 222.146 436.588 221.887ZM426.723 198.646C421.432 196.402 415.994 194.521 410.447 193.017C410.224 192.919 409.984 192.866 409.74 192.861C409.496 192.856 409.254 192.899 409.027 192.988C408.8 193.078 408.593 193.211 408.417 193.38C408.242 193.55 408.102 193.753 408.006 193.977L403.306 205.109C403.118 205.556 403.115 206.06 403.298 206.51C403.48 206.959 403.834 207.318 404.281 207.507C417.253 211.116 427.929 215.622 436.88 221.267C437.325 221.447 437.823 221.444 438.267 221.26C438.711 221.076 439.065 220.725 439.252 220.283L443.951 209.15C444.14 208.703 444.143 208.199 443.96 207.75C443.777 207.3 443.424 206.942 442.977 206.752C437.731 203.719 432.302 201.012 426.723 198.646V198.646Z" fill="#47A138"/>
<path d="M423.853 211.39C426.499 211.39 428.645 209.244 428.645 206.598C428.645 203.952 426.499 201.807 423.853 201.807C421.207 201.807 419.062 203.952 419.062 206.598C419.062 209.244 421.207 211.39 423.853 211.39Z" fill="#47A138"/>
<path d="M413.475 199.5L409.692 197.903C409.441 197.797 409.243 197.596 409.14 197.343C409.038 197.091 409.039 196.809 409.145 196.558L409.677 195.297C409.783 195.046 409.985 194.848 410.237 194.745C410.489 194.643 410.772 194.644 411.023 194.75L414.806 196.347C415.057 196.453 415.255 196.654 415.358 196.907C415.46 197.159 415.459 197.441 415.353 197.692L414.821 198.954C414.714 199.204 414.513 199.403 414.261 199.505C414.009 199.608 413.726 199.606 413.475 199.5Z" fill="#47A138"/>
<path d="M436.235 219.509L432.451 217.912C432.2 217.806 432.002 217.604 431.9 217.352C431.797 217.1 431.799 216.818 431.904 216.567L432.437 215.305C432.543 215.055 432.744 214.856 432.996 214.754C433.249 214.651 433.531 214.653 433.782 214.759L437.566 216.356C437.817 216.462 438.015 216.663 438.117 216.915C438.22 217.168 438.218 217.45 438.112 217.701L437.58 218.962C437.474 219.213 437.273 219.411 437.02 219.514C436.768 219.616 436.486 219.615 436.235 219.509Z" fill="#47A138"/>
<path d="M447.765 212.937C447.26 213.687 446.603 214.32 445.836 214.797L445.757 214.845C444.416 215.664 442.82 215.963 441.273 215.684C439.726 215.406 438.335 214.57 437.364 213.334C436.392 212.099 435.907 210.55 436.002 208.981C436.096 207.412 436.762 205.932 437.875 204.821L437.936 204.761L437.973 204.683L447.413 184.898L458.878 184.157L447.216 204.596L447.04 204.905L447.274 205.173C447.888 205.876 448.341 206.705 448.6 207.601C448.859 208.497 448.919 209.44 448.775 210.362C448.63 211.284 448.285 212.163 447.765 212.937Z" stroke="#212121"/>
<path d="M538.83 359.609H531.38L527.512 328.24L538.832 328.241L538.83 359.609Z" stroke="#212121"/>
<path d="M541.471 368.244L514.412 368.243V367.901C514.412 365.107 515.522 362.429 517.497 360.454C519.472 358.478 522.151 357.369 524.944 357.369H524.944L541.471 357.369L541.471 368.244Z" fill="#212121"/>
<path d="M481.332 359.609H473.882L470.013 328.24L481.333 328.241L481.332 359.609Z" stroke="#212121"/>
<path d="M483.972 368.244L456.913 368.243V367.901C456.913 365.107 458.023 362.429 459.998 360.454C461.973 358.478 464.652 357.369 467.445 357.369H467.446L483.973 357.369L483.972 368.244Z" fill="#212121"/>
<path d="M460.253 184.511C460.253 184.511 457.945 217.382 462.491 233.937C467.037 250.492 467.849 350.605 467.849 350.605H483.087L496.295 214.33L526.743 351.085L541.258 350.087L533.298 188.939L460.253 184.511Z" fill="#212121"/>
<path d="M527 73.705L515.351 65.2041L495.831 69.4546L490.547 82.01L481.442 86.5243C478.448 88.0086 475.86 90.1977 473.899 92.9033C471.938 95.609 470.663 98.7503 470.184 102.057L457.176 191.882L533.297 188.939L542.513 83.1535C542.609 82.0485 542.483 80.9354 542.141 79.88C541.8 78.8247 541.25 77.8486 540.524 77.0095C539.799 76.1705 538.913 75.4855 537.918 74.995C536.923 74.5046 535.839 74.2188 534.732 74.1544L527 73.705Z" fill="#F9F9F9"/>
<path d="M476.625 93.54L469.594 103.018L438.972 196.415L453.326 202.162L476.31 158.641L476.625 93.54Z" fill="#F9F9F9"/>
<path d="M524.594 36.4125C524.594 49.0039 514.387 59.2112 501.796 59.2112C489.204 59.2112 478.997 49.0039 478.997 36.4125C478.997 23.8211 489.204 13.6138 501.796 13.6138C514.387 13.6138 524.594 23.8211 524.594 36.4125Z" stroke="#212121"/>
<path d="M502.11 60.7658C511.5 60.7658 519.112 53.1538 519.112 43.764C519.112 34.3742 511.5 26.7622 502.11 26.7622C492.721 26.7622 485.109 34.3742 485.109 43.764C485.109 53.1538 492.721 60.7658 502.11 60.7658Z" fill="#47A138"/>
<path d="M512.63 13.2236C512.63 20.2507 506.933 25.9472 499.906 25.9472C492.879 25.9472 487.183 20.2507 487.183 13.2236C487.183 6.19655 492.879 0.5 499.906 0.5C506.933 0.5 512.63 6.19655 512.63 13.2236Z" stroke="#212121"/>
<path d="M519.53 30.2344C519.462 33.6298 518.546 36.8773 516.972 39.303C515.399 41.7287 513.288 43.1463 511.079 43.2617C511.216 43.2743 511.35 43.2988 511.488 43.3015C513.769 43.3467 515.984 41.997 517.645 39.5495C519.307 37.102 520.28 33.7571 520.349 30.2507C520.418 26.7442 519.579 23.3635 518.015 20.8522C516.452 18.3408 514.292 16.9046 512.011 16.8595C511.873 16.8568 511.738 16.876 511.601 16.8832C513.804 17.0858 515.857 18.5858 517.333 21.0719C518.809 23.5579 519.596 26.8391 519.53 30.2344Z" fill="#212121"/>
<path opacity="0.1" d="M532.685 98.9189L527.941 146.208L511.189 179.225L532.685 98.9189Z" fill="#212121"/>
<path d="M31.2235 244.463H27.1165V247.886H31.2235V244.463Z" fill="white"/>
<path d="M419.702 247.886H411.609V244.463H419.702V247.886ZM403.516 247.886H395.422V244.463H403.516V247.886ZM387.329 247.886H379.236V244.463H387.329V247.886ZM371.143 247.886H363.049V244.463H371.143V247.886ZM354.956 247.886H346.863V244.463H354.956V247.886ZM338.769 247.886H330.676V244.463H338.769L338.769 247.886ZM322.583 247.886H314.49V244.463H322.583V247.886ZM306.396 247.886H298.303V244.463H306.396V247.886ZM290.209 247.886H282.116V244.463H290.209V247.886ZM274.023 247.886H265.929V244.463H274.023L274.023 247.886ZM257.836 247.886H249.743V244.463H257.836L257.836 247.886ZM241.65 247.886H233.556V244.463H241.65L241.65 247.886ZM225.463 247.886H217.37V244.463H225.463L225.463 247.886ZM209.276 247.886H201.183V244.463H209.276L209.276 247.886ZM193.09 247.886H184.997V244.463H193.09L193.09 247.886ZM176.903 247.886H168.81V244.463H176.903L176.903 247.886ZM160.717 247.886H152.623V244.463H160.717L160.717 247.886ZM144.53 247.886H136.437V244.463H144.53L144.53 247.886ZM128.343 247.886H120.25V244.463H128.343L128.343 247.886ZM112.157 247.886H104.064V244.463H112.157L112.157 247.886ZM95.97 247.886H87.8771V244.463H95.9702L95.97 247.886ZM79.7835 247.886H71.6902V244.463H79.7837L79.7835 247.886ZM63.5969 247.886H55.5037V244.463H63.5971L63.5969 247.886ZM47.4103 247.886H39.3171V244.463H47.4106L47.4103 247.886Z" fill="#8B8B8B"/>
<path d="M31.2235 157.53H27.1165V160.953H31.2235V157.53Z" fill="white"/>
<path d="M419.463 161.274H411.37V157.852H419.463V161.274ZM403.277 161.274H395.183V157.852H403.277V161.274ZM387.09 161.274H378.997V157.852H387.09V161.274ZM370.904 161.274H362.81V157.852H370.904V161.274ZM354.717 161.274H346.624V157.852H354.717V161.274ZM338.53 161.274H330.437V157.852H338.53L338.53 161.274ZM322.344 161.274H314.251V157.852H322.344V161.274ZM306.157 161.274H298.064V157.852H306.157V161.274ZM289.971 161.274H281.878V157.852H289.971V161.274ZM273.784 161.274H265.691V157.852H273.784L273.784 161.274ZM257.598 161.274H249.504V157.852H257.598L257.598 161.274ZM241.411 161.274H233.318V157.852H241.411L241.411 161.274ZM225.225 161.274H217.131V157.852H225.225L225.225 161.274ZM209.038 161.274H200.945V157.852H209.038L209.038 161.274ZM192.851 161.274H184.758V157.852H192.851L192.851 161.274ZM176.665 161.274H168.571V157.852H176.665L176.665 161.274ZM160.478 161.274H152.385V157.852H160.478L160.478 161.274ZM144.291 161.274H136.198V157.852H144.292L144.291 161.274ZM128.105 161.274H120.012V157.852H128.105L128.105 161.274ZM111.918 161.274H103.825V157.852H111.918L111.918 161.274ZM95.7315 161.274H87.6385V157.852H95.7316L95.7315 161.274ZM79.5449 161.274H71.4517V157.852H79.5452L79.5449 161.274ZM63.3584 161.274H55.2652V157.852H63.3586L63.3584 161.274ZM47.1718 161.274H39.0786V157.852H47.172L47.1718 161.274Z" fill="#8B8B8B"/>
<path d="M419.463 69.0978H411.37V65.6753H419.463V69.0978ZM403.277 69.0978H395.183V65.6753H403.277V69.0978ZM387.09 69.0978H378.997V65.6753H387.09V69.0978ZM370.904 69.0978H362.81V65.6753H370.904V69.0978ZM354.717 69.0978H346.624V65.6753H354.717V69.0978ZM338.53 69.0978H330.437V65.6753H338.53L338.53 69.0978ZM322.344 69.0978H314.251V65.6753H322.344V69.0978ZM306.157 69.0978H298.064V65.6753H306.157V69.0978ZM289.971 69.0978H281.878V65.6753H289.971V69.0978ZM273.784 69.0978H265.691V65.6753H273.784L273.784 69.0978ZM257.598 69.0978H249.504V65.6753H257.598L257.598 69.0978ZM241.411 69.0978H233.318V65.6753H241.411L241.411 69.0978ZM225.225 69.0978H217.131V65.6753H225.225L225.225 69.0978ZM209.038 69.0978H200.945V65.6753H209.038L209.038 69.0978ZM192.851 69.0978H184.758V65.6753H192.851L192.851 69.0978ZM176.665 69.0978H168.571V65.6753H176.665L176.665 69.0978ZM160.478 69.0978H152.385V65.6753H160.478L160.478 69.0978ZM144.291 69.0978H136.198V65.6753H144.292L144.291 69.0978ZM128.105 69.0978H120.012V65.6753H128.105L128.105 69.0978ZM111.918 69.0978H103.825V65.6753H111.918L111.918 69.0978ZM95.7315 69.0978H87.6385V65.6753H95.7316L95.7315 69.0978ZM79.5449 69.0978H71.4517V65.6753H79.5452L79.5449 69.0978ZM63.3584 69.0978H55.2652V65.6753H63.3586L63.3584 69.0978ZM47.1718 69.0978H39.0786V65.6753H47.172L47.1718 69.0978Z" fill="#8B8B8B"/>
<path d="M160.938 245.49H127.397V368.701H160.938V245.49Z" fill="#212121"/>
<path d="M167.098 245.49H133.557V368.701H167.098V245.49Z" fill="#47A138"/>
<path d="M240.341 158.558H206.8V368.701H240.341V158.558Z" fill="#212121"/>
<path d="M246.501 158.558H212.96V368.701H246.501V158.558Z" fill="#47A138"/>
<path d="M319.744 71.625H286.203V368.701H319.744V71.625Z" fill="#212121"/>
<path d="M325.904 71.625H292.363V368.701H325.904V71.625Z" fill="#47A138"/>
<path d="M27.459 167.456C31.9955 167.456 35.6731 163.778 35.6731 159.242C35.6731 154.705 31.9955 151.028 27.459 151.028C22.9224 151.028 19.2449 154.705 19.2449 159.242C19.2449 163.778 22.9224 167.456 27.459 167.456Z" fill="#8B8B8B"/>
<path d="M27.459 75.2797C31.9955 75.2797 35.6731 71.6022 35.6731 67.0657C35.6731 62.5291 31.9955 58.8516 27.459 58.8516C22.9224 58.8516 19.2449 62.5291 19.2449 67.0657C19.2449 71.6022 22.9224 75.2797 27.459 75.2797Z" fill="#8B8B8B"/>
<path d="M27.459 254.389C31.9955 254.389 35.6731 250.711 35.6731 246.175C35.6731 241.638 31.9955 237.96 27.459 237.96C22.9224 237.96 19.2449 241.638 19.2449 246.175C19.2449 250.711 22.9224 254.389 27.459 254.389Z" fill="#8B8B8B"/>
<path d="M607.921 367.934H0.0786133V369.468H607.921V367.934Z" fill="#47A138"/>
<path d="M512.936 211.826L512.88 211.821C502.499 210.107 490.966 210.108 477.623 211.823H477.617C477.285 211.827 476.954 211.765 476.645 211.641C476.337 211.517 476.055 211.332 475.818 211.099C475.581 210.865 475.392 210.587 475.263 210.281C475.133 209.974 475.066 209.644 475.065 209.312V197.228C475.065 196.561 475.331 195.922 475.802 195.451C476.273 194.979 476.912 194.714 477.579 194.713C489.329 193.181 501.229 193.182 512.978 194.716H512.983C513.642 194.726 514.271 194.995 514.733 195.465C515.195 195.935 515.453 196.569 515.451 197.228V209.312C515.45 209.978 515.185 210.617 514.713 211.089C514.242 211.56 513.603 211.825 512.936 211.826Z" fill="white"/>
<path d="M512.936 211.826L512.88 211.821C502.499 210.107 490.966 210.108 477.623 211.823H477.617C477.285 211.827 476.954 211.765 476.645 211.641C476.337 211.517 476.055 211.332 475.818 211.099C475.581 210.865 475.392 210.587 475.263 210.281C475.133 209.974 475.066 209.644 475.065 209.312V197.228C475.065 196.561 475.331 195.922 475.802 195.451C476.273 194.979 476.912 194.714 477.579 194.713C489.329 193.181 501.229 193.182 512.978 194.716H512.983C513.642 194.726 514.271 194.995 514.733 195.465C515.195 195.935 515.453 196.569 515.451 197.228V209.312C515.45 209.978 515.185 210.617 514.713 211.089C514.242 211.56 513.603 211.825 512.936 211.826ZM494.809 194.251C489.062 194.241 483.321 194.623 477.626 195.394C477.382 195.391 477.14 195.435 476.913 195.525C476.686 195.616 476.48 195.75 476.306 195.92C476.131 196.091 475.992 196.294 475.897 196.518C475.801 196.743 475.751 196.984 475.749 197.228V209.312C475.75 209.797 475.943 210.262 476.286 210.605C476.629 210.948 477.094 211.141 477.579 211.142C490.934 209.422 502.522 209.421 512.963 211.141C513.444 211.134 513.902 210.938 514.239 210.595C514.576 210.253 514.766 209.792 514.766 209.312V197.228C514.766 196.743 514.573 196.277 514.23 195.934C513.887 195.591 513.421 195.398 512.936 195.398C506.923 194.644 500.869 194.261 494.809 194.251Z" fill="#47A138"/>
<path d="M495.258 207.484C497.904 207.484 500.049 205.339 500.049 202.692C500.049 200.046 497.904 197.901 495.258 197.901C492.611 197.901 490.466 200.046 490.466 202.692C490.466 205.339 492.611 207.484 495.258 207.484Z" fill="#47A138"/>
<path d="M482.936 200.189H478.829C478.557 200.189 478.296 200.081 478.104 199.888C477.911 199.696 477.803 199.435 477.803 199.162V197.793C477.803 197.521 477.911 197.26 478.104 197.068C478.296 196.875 478.557 196.767 478.829 196.767H482.936C483.209 196.767 483.47 196.875 483.662 197.068C483.855 197.26 483.963 197.521 483.963 197.793V199.162C483.963 199.435 483.855 199.696 483.662 199.888C483.47 200.081 483.209 200.189 482.936 200.189Z" fill="#47A138"/>
<path d="M511.686 209.772H507.579C507.306 209.772 507.045 209.664 506.853 209.471C506.66 209.279 506.552 209.018 506.552 208.745V207.376C506.552 207.104 506.66 206.843 506.853 206.651C507.045 206.458 507.306 206.35 507.579 206.35H511.686C511.958 206.35 512.219 206.458 512.411 206.651C512.604 206.843 512.712 207.104 512.712 207.376V208.745C512.712 209.018 512.604 209.279 512.411 209.471C512.219 209.664 511.958 209.772 511.686 209.772Z" fill="#47A138"/>
<path d="M505.74 195.954L505.739 195.951C505.674 195.02 505.814 194.086 506.148 193.215C506.483 192.344 507.005 191.557 507.676 190.909C508.348 190.261 509.154 189.769 510.037 189.466C510.919 189.164 511.858 189.058 512.786 189.157L513.139 189.195L513.291 188.873L523.325 167.588L529.304 177.399L518.529 196.49L518.487 196.565L518.472 196.65C518.202 198.198 517.373 199.594 516.143 200.572C514.913 201.55 513.366 202.043 511.797 201.958C510.227 201.872 508.744 201.213 507.628 200.107C506.511 199 505.839 197.523 505.74 195.954Z" stroke="#212121"/>
<path d="M533.599 80.251L537.894 74.6491C537.894 74.6491 548.36 72.5174 550.138 86.8931L549.019 150.802L526.084 186.901L511.188 183.098L530.663 140.215L533.599 80.251Z" fill="#F9F9F9"/>
<path d="M505.149 44.76C505.459 44.6241 505.742 44.4066 505.98 44.1221C506.137 43.9193 506.257 43.6759 506.331 43.409C506.405 43.1421 506.431 42.8582 506.409 42.577C506.396 42.3766 506.346 42.1828 506.263 42.0106C506.18 41.8384 506.066 41.6926 505.931 41.5846C505.58 41.314 505.116 41.3243 504.647 41.5963L504.593 36.8516L504.213 36.8583L504.276 42.4363L504.566 42.1983C504.902 41.9228 505.384 41.7231 505.732 41.9906C505.817 42.0614 505.889 42.1561 505.941 42.2673C505.993 42.3785 506.024 42.5031 506.031 42.6316C506.047 42.8411 506.027 43.0524 505.972 43.2512C505.917 43.45 505.828 43.6316 505.712 43.7836C505.299 44.2963 504.689 44.4681 503.992 44.6252L504.06 45.0943C504.43 45.0239 504.795 44.912 505.149 44.76Z" fill="#212121"/>
<path d="M511.749 37.9122L508.116 38.4624L508.218 39.1368L511.851 38.5867L511.749 37.9122Z" fill="#212121"/>
<path d="M493.181 37.9122L496.813 38.4624L496.711 39.1368L493.078 38.5867L493.181 37.9122Z" fill="#212121"/>
</svg>
