<svg width="362" height="266" viewBox="0 0 362 266" fill="none" xmlns="http://www.w3.org/2000/svg">
<path d="M351.944 234.8H76.0608C73.6074 234.8 71.2545 233.825 69.5197 232.09C67.7849 230.355 66.8103 228.003 66.8103 225.549C166.818 213.926 264.946 213.926 361.195 225.549C361.195 228.003 360.22 230.355 358.485 232.09C356.751 233.825 354.398 234.8 351.944 234.8Z" fill="#444444"/>
<path d="M361.195 226.095L66.8103 225.55L100.928 168.143L101.092 167.871V41.351C101.092 39.8153 101.394 38.2946 101.982 36.8758C102.569 35.457 103.431 34.1678 104.516 33.082C105.602 31.9961 106.891 31.1347 108.31 30.5471C109.729 29.9595 111.25 29.6571 112.785 29.6572H313.587C315.123 29.6571 316.644 29.9595 318.062 30.5471C319.481 31.1347 320.77 31.9961 321.856 33.082C322.942 34.1678 323.803 35.457 324.391 36.8758C324.979 38.2946 325.281 39.8153 325.281 41.351V168.741L361.195 226.095Z" fill="#212121"/>
<path d="M112.519 37.8184C111.509 37.8195 110.541 38.2212 109.827 38.9353C109.113 39.6493 108.711 40.6175 108.71 41.6274V156.987C108.711 157.997 109.113 158.965 109.827 159.679C110.541 160.393 111.509 160.795 112.519 160.796H315.487C316.497 160.795 317.465 160.393 318.179 159.679C318.893 158.965 319.295 157.997 319.296 156.987V41.6274C319.295 40.6175 318.893 39.6494 318.179 38.9353C317.465 38.2212 316.497 37.8195 315.487 37.8184H112.519Z" fill="white"/>
<path d="M113.37 176.032C113.058 176.032 112.752 176.122 112.49 176.29C112.227 176.459 112.018 176.699 111.887 176.982L101.374 199.836C101.259 200.085 101.209 200.358 101.228 200.631C101.247 200.905 101.335 201.168 101.482 201.399C101.63 201.63 101.833 201.819 102.073 201.951C102.314 202.082 102.583 202.151 102.857 202.151H323.936C324.215 202.151 324.488 202.08 324.731 201.944C324.974 201.809 325.179 201.613 325.325 201.377C325.471 201.14 325.555 200.87 325.567 200.592C325.58 200.314 325.521 200.037 325.396 199.788L313.969 176.934C313.834 176.662 313.626 176.434 313.368 176.274C313.11 176.115 312.813 176.031 312.509 176.032H113.37Z" fill="#444444"/>
<path d="M213.187 35.9144C214.539 35.9144 215.635 34.8181 215.635 33.4658C215.635 32.1134 214.539 31.0171 213.187 31.0171C211.834 31.0171 210.738 32.1134 210.738 33.4658C210.738 34.8181 211.834 35.9144 213.187 35.9144Z" fill="white"/>
<path d="M191.456 206.504C191.097 206.504 190.748 206.623 190.463 206.841C190.179 207.059 189.974 207.365 189.88 207.712L187.243 217.506C187.178 217.748 187.169 218.002 187.218 218.248C187.266 218.494 187.371 218.725 187.523 218.924C187.676 219.123 187.872 219.284 188.096 219.395C188.321 219.506 188.568 219.563 188.819 219.563H238.97C239.23 219.563 239.486 219.501 239.718 219.382C239.949 219.263 240.148 219.09 240.299 218.878C240.45 218.666 240.548 218.421 240.585 218.163C240.622 217.906 240.597 217.643 240.512 217.397L237.121 207.602C237.01 207.282 236.802 207.004 236.525 206.807C236.249 206.61 235.918 206.504 235.579 206.504H191.456Z" fill="#444444"/>
<path d="M325.281 165.965V168.141H100.929L101.098 167.869V165.965H325.281Z" fill="#444444"/>
<path d="M319.024 76.1807C340.06 76.1807 357.114 59.127 357.114 38.0903C357.114 17.0536 340.06 0 319.024 0C297.987 0 280.933 17.0536 280.933 38.0903C280.933 59.127 297.987 76.1807 319.024 76.1807Z" fill="#47A138"/>
<path d="M334.804 54.686H303.243C302.666 54.6854 302.113 54.4559 301.705 54.0478C301.297 53.6398 301.067 53.0865 301.067 52.5094V33.4642C301.067 32.8871 301.297 32.3338 301.705 31.9258C302.113 31.5177 302.666 31.2882 303.243 31.2876H334.804C335.381 31.2882 335.934 31.5177 336.342 31.9258C336.75 32.3338 336.98 32.8871 336.98 33.4642V52.5094C336.98 53.0864 336.75 53.6397 336.342 54.0478C335.934 54.4559 335.381 54.6854 334.804 54.686ZM303.243 33.4642V52.5094H334.805L334.804 33.4642L303.243 33.4642Z" fill="white"/>
<path d="M328.818 33.4653H309.229V24.7589C309.229 18.4529 313.348 13.876 319.023 13.876C324.699 13.876 328.818 18.4529 328.818 24.7589L328.818 33.4653ZM311.405 31.2887H326.642V24.7589C326.642 19.6328 323.509 16.0526 319.023 16.0526C314.538 16.0526 311.405 19.6328 311.405 24.7589L311.405 31.2887Z" fill="white"/>
<path d="M319.023 44.6203C320.225 44.6203 321.2 43.6458 321.2 42.4437C321.2 41.2416 320.225 40.2671 319.023 40.2671C317.821 40.2671 316.847 41.2416 316.847 42.4437C316.847 43.6458 317.821 44.6203 319.023 44.6203Z" fill="white"/>
<path d="M292.433 121.667H135.573C134.803 121.666 134.064 121.36 133.52 120.815C132.975 120.27 132.669 119.532 132.668 118.762V79.8516C132.669 79.0815 132.975 78.3431 133.52 77.7986C134.064 77.254 134.803 76.9477 135.573 76.9468H292.433C293.204 76.9477 293.942 77.254 294.486 77.7986C295.031 78.3431 295.337 79.0815 295.338 79.8516V118.762C295.337 119.532 295.031 120.27 294.486 120.815C293.942 121.36 293.204 121.666 292.433 121.667V121.667ZM135.573 78.1087C135.111 78.1092 134.668 78.293 134.341 78.6198C134.014 78.9465 133.83 79.3895 133.83 79.8516V118.762C133.83 119.224 134.014 119.667 134.341 119.994C134.668 120.321 135.111 120.504 135.573 120.505H292.433C292.895 120.504 293.338 120.321 293.665 119.994C293.992 119.667 294.176 119.224 294.176 118.762V79.8516C294.176 79.3895 293.992 78.9465 293.665 78.6197C293.338 78.293 292.895 78.1092 292.433 78.1087L135.573 78.1087Z" fill="#F9F9F9"/>
<path d="M159.945 109.647C166.48 109.647 171.778 104.349 171.778 97.8141C171.778 91.2791 166.48 85.9814 159.945 85.9814C153.41 85.9814 148.112 91.2791 148.112 97.8141C148.112 104.349 153.41 109.647 159.945 109.647Z" fill="#F9F9F9"/>
<path d="M187.273 89.9258C187.014 89.9254 186.757 89.9761 186.517 90.075C186.278 90.1739 186.06 90.3191 185.877 90.5023C185.693 90.6855 185.548 90.903 185.448 91.1425C185.349 91.382 185.298 91.6387 185.298 91.8979C185.298 92.1571 185.349 92.4138 185.448 92.6533C185.548 92.8928 185.693 93.1103 185.877 93.2935C186.06 93.4767 186.278 93.6219 186.517 93.7208C186.757 93.8197 187.014 93.8704 187.273 93.87H280.244C280.767 93.87 281.269 93.6622 281.639 93.2924C282.009 92.9225 282.216 92.4209 282.216 91.8979C282.216 91.3749 282.009 90.8732 281.639 90.5034C281.269 90.1336 280.767 89.9258 280.244 89.9258H187.273Z" fill="#F9F9F9"/>
<path d="M187.273 101.759C186.75 101.759 186.249 101.967 185.879 102.336C185.509 102.706 185.301 103.208 185.301 103.731C185.301 104.254 185.509 104.756 185.879 105.125C186.249 105.495 186.75 105.703 187.273 105.703H227.279C227.802 105.703 228.304 105.495 228.674 105.125C229.043 104.756 229.251 104.254 229.251 103.731C229.251 103.208 229.043 102.706 228.674 102.336C228.304 101.967 227.802 101.759 227.279 101.759H187.273Z" fill="#F9F9F9"/>
<path d="M98.2099 96.7568L98.3688 96.6713L98.4365 96.504L101.469 89.0115C101.767 88.2754 102.251 87.6295 102.874 87.1371C103.497 86.6447 104.238 86.3227 105.023 86.2029C105.808 86.083 106.61 86.1693 107.352 86.4533C108.093 86.7374 108.748 87.2094 109.252 87.823C109.99 88.7207 110.358 89.8652 110.283 91.0246C110.209 92.184 109.696 93.2715 108.849 94.067L100.249 102.146L72.0223 117.153L71.6907 105.546C81.0404 103.948 89.9526 101.198 98.2099 96.7568Z" stroke="#212121"/>
<path d="M29.6914 191.563C29.4798 190.787 29.4349 189.975 29.5596 189.181C29.6843 188.386 29.9757 187.627 30.4147 186.954L36.7845 177.178C38.2911 174.866 40.6028 173.196 43.2712 172.492C45.9396 171.788 48.7744 172.1 51.2256 173.368V173.368C48.5485 177.925 48.9217 181.922 52.1501 185.396C47.1384 187.843 42.5064 191.001 38.3977 194.772C37.6476 195.283 36.7862 195.608 35.8852 195.719C34.9842 195.83 34.0697 195.724 33.2179 195.41C32.3661 195.096 31.6017 194.583 30.9883 193.914C30.3748 193.245 29.9302 192.439 29.6914 191.563V191.563Z" fill="#444444"/>
<path d="M101.863 178.781C100.899 180.387 99.5383 181.719 97.9115 182.648C96.2848 183.577 94.4464 184.073 92.573 184.087L50.2564 184.407L48.4211 173.763L67.1406 168.257L51.3575 156.145L68.6088 135.957L99.9425 165.161C101.774 166.868 102.964 169.152 103.313 171.631C103.663 174.11 103.151 176.634 101.863 178.781V178.781Z" fill="#8B8B8B"/>
<path d="M43.6499 251.577H33.7396C24.8415 190.585 15.7842 129.422 42.5487 106.593L74.115 111.731L70.0774 138.526L52.4591 158.714L43.6499 251.577Z" fill="#8B8B8B"/>
<path d="M52.362 265.395C51.5862 265.607 50.7744 265.652 49.9799 265.527C49.1855 265.403 48.4264 265.111 47.7527 264.672L36.9921 263.226C34.6798 261.719 33.0096 259.408 32.3055 256.739C31.6013 254.071 31.9135 251.236 33.1813 248.785C37.7383 251.462 41.7358 251.088 45.2095 247.86C47.664 252.816 51.7081 252.514 55.5704 256.689C56.0818 257.439 56.4065 258.3 56.5176 259.201C56.6287 260.102 56.5229 261.017 56.209 261.869C55.8951 262.72 55.3822 263.485 54.713 264.098C54.0439 264.712 53.2378 265.156 52.362 265.395V265.395Z" fill="#444444"/>
<path d="M72.1849 122.784C58.825 131.888 49.3852 123.096 42.1816 109.53C43.1826 101.23 41.5618 91.2959 38.56 80.5023C37.2251 75.7415 37.7235 70.6533 39.9569 66.2421C42.1903 61.8309 45.9964 58.4173 50.6237 56.6753V56.6753L66.4069 63.2822C79.8086 74.2061 82.4464 86.0388 77.4184 98.5189L72.1849 122.784Z" fill="#212121"/>
<path d="M18.8032 83.1663L44.7183 98.4964L48.281 107.284C48.4976 107.818 48.603 108.391 48.591 108.967C48.579 109.543 48.4498 110.111 48.2113 110.636C47.9727 111.16 47.6298 111.631 47.2035 112.019C46.7771 112.406 46.2763 112.703 45.7315 112.891C45.1122 113.105 44.4518 113.172 43.8022 113.088C43.1525 113.003 42.5312 112.77 41.9868 112.405C41.4425 112.041 40.9899 111.555 40.6645 110.987C40.3391 110.418 40.1498 109.782 40.1113 109.128L39.7446 102.894L39.7247 102.555L39.4022 102.449L6.27958 91.5184C5.23564 91.1739 4.28379 90.5964 3.49611 89.8295C2.70843 89.0627 2.10557 88.1267 1.73321 87.0923L1.263 87.2616L1.73321 87.0923C1.19044 85.5847 1.16282 83.9396 1.65465 82.4145C2.14649 80.8895 3.13002 79.5705 4.45137 78.664L30.4584 60.822L33.1777 74.7583L18.8253 82.2933L18.0317 82.71L18.8032 83.1663Z" stroke="#212121"/>
<path d="M48.422 76.4962C42.2987 73.8128 36.7306 76.7278 29.7025 79.0656L28.6013 59.612C35.58 55.8925 42.2336 54.8896 48.422 57.7768L48.422 76.4962Z" fill="#212121"/>
<path d="M72.5935 53.0438C72.2038 53.4316 71.675 53.6502 71.1229 53.6509H37.884C37.3319 53.6502 36.8031 53.4317 36.4134 53.0438C36.0238 52.6561 35.8051 52.1309 35.8044 51.5837V37.3234C35.8044 32.3888 37.7739 27.6557 41.2804 24.1657C44.787 20.6755 49.5434 18.7144 54.5034 18.7144C59.4635 18.7144 64.2199 20.6755 67.7264 24.1657C71.2329 27.6557 73.2024 32.3888 73.2024 37.3234V51.5834C73.2018 52.1308 72.9831 52.656 72.5935 53.0438Z" stroke="#212121"/>
<path d="M70.8526 46.7048C74.5869 39.8734 72.0763 31.3082 65.2449 27.5738C58.4135 23.8394 49.8482 26.35 46.1138 33.1814C42.3794 40.0128 44.89 48.5781 51.7214 52.3125C58.5529 56.0469 67.1182 53.5362 70.8526 46.7048Z" fill="#47A138"/>
<path d="M64.5388 46.9194C64.8536 46.7815 65.1412 46.5607 65.3822 46.2719C65.5417 46.066 65.6633 45.8189 65.7385 45.5479C65.8137 45.2769 65.8407 44.9886 65.8177 44.7031C65.8043 44.4997 65.7535 44.3029 65.6693 44.1281C65.5852 43.9533 65.4699 43.8052 65.3325 43.6955C64.976 43.4208 64.5049 43.4312 64.0294 43.7074L63.9745 38.8901L63.5882 38.897L63.6527 44.5603L63.9468 44.3187C64.2877 44.039 64.7776 43.8361 65.1301 44.1078C65.2173 44.1797 65.29 44.2758 65.3427 44.3887C65.3954 44.5015 65.4266 44.6281 65.4339 44.7586C65.4501 44.9712 65.4296 45.1858 65.3738 45.3876C65.3179 45.5894 65.228 45.7738 65.1101 45.9282C64.6914 46.4487 64.0716 46.6231 63.3643 46.7827L63.4327 47.2589C63.8087 47.1874 64.1789 47.0738 64.5388 46.9194V46.9194Z" fill="#212121"/>
<path d="M71.2391 39.9668L67.5508 40.5254L67.6545 41.2101L71.3428 40.6516L71.2391 39.9668Z" fill="#212121"/>
<path d="M52.3874 39.9668L56.0757 40.5254L55.972 41.2101L52.2837 40.6516L52.3874 39.9668Z" fill="#212121"/>
<path d="M57.2857 35.7555L56.3685 38.3907H54.0848L53.7074 32.968L52.7364 32.8383L50.8037 38.3907H45.6518C45.7089 34.4955 47.2419 30.7751 49.9269 28.0203C52.6594 25.2168 56.3614 23.6422 60.2201 23.6377H63.063C66.9216 23.6422 70.6236 25.2168 73.3561 28.0203C76.0412 30.7751 77.5743 34.4955 77.6314 38.3907H58.4312L58.2567 35.8852L57.2857 35.7555Z" stroke="#212121"/>
</svg>
