<svg width="328" height="263" viewBox="0 0 328 263" fill="none" xmlns="http://www.w3.org/2000/svg">
<path d="M47.9602 220.787L48.9443 220.699L49.4257 213.553C54.8754 216.2 60.2576 219.515 64.5659 223.592L64.5659 223.592C71.8447 230.48 77.3144 237.914 80.2824 244.348C81.767 247.566 82.6148 250.511 82.7651 252.999C82.9154 255.485 82.3677 257.467 81.1207 258.837C79.8753 260.205 77.9837 260.906 75.5474 260.938C73.1083 260.97 70.1683 260.328 66.9114 259.059C60.4005 256.52 52.7243 251.513 45.4455 244.624C44.2283 243.464 43.0729 242.239 41.9844 240.953L50.2058 239.744L50.2212 238.757L38.707 236.695C33.7725 229.676 30.1167 221.598 27.6882 215.244C26.4651 212.045 25.5552 209.288 24.9514 207.331C24.6495 206.353 24.4242 205.576 24.2746 205.044C24.2708 205.03 24.2671 205.017 24.2635 205.004C24.6648 205.089 25.2106 205.208 25.8813 205.364C27.3586 205.707 29.4411 206.226 31.9181 206.942L33.0149 211.354L33.999 211.267L34.2442 207.637C38.1466 208.84 41.9844 210.251 45.7417 211.865L47.9602 220.787Z" stroke="#47A138"/>
<path d="M69.3606 210.633L70.2477 211.066L74.3079 205.302C77.6552 210.357 80.6037 215.941 82.2358 221.609C84.9922 231.181 85.9113 240.273 85.1856 247.226C84.8227 250.704 84.0509 253.62 82.9127 255.79C81.7754 257.957 80.2956 259.339 78.524 259.845C76.7522 260.352 74.7616 259.962 72.6433 258.724C70.5236 257.486 68.3171 255.42 66.1586 252.663C61.8435 247.151 57.7848 238.956 55.0285 229.384C54.5732 227.783 54.204 226.159 53.9223 224.519L61.6168 227.76L62.1388 226.922L53.269 219.217C52.5996 210.752 53.5717 202.058 54.7207 195.451C55.2994 192.124 55.922 189.332 56.3997 187.372C56.6385 186.393 56.841 185.622 56.9836 185.096C56.9862 185.086 56.9888 185.077 56.9913 185.068C57.2941 185.347 57.7048 185.732 58.2052 186.212C59.3032 187.266 60.8326 188.783 62.6019 190.668L61.2977 194.946L62.1847 195.379L64.2462 192.453C66.9967 195.49 69.5848 198.669 71.9998 201.977L69.3606 210.633Z" stroke="#47A138"/>
<path d="M205.367 62.5814H203.935V23.32C203.935 20.3358 203.348 17.3808 202.206 14.6238C201.065 11.8668 199.392 9.36165 197.283 7.2515C195.175 5.14135 192.671 3.46749 189.916 2.32549C187.161 1.18348 184.207 0.595703 181.225 0.595703H98.0947C92.0716 0.595703 86.2953 2.98987 82.0363 7.2515C77.7774 11.5131 75.3848 17.2932 75.3848 23.32V238.715C75.3848 241.699 75.9722 244.654 77.1134 247.411C78.2547 250.168 79.9275 252.673 82.0363 254.783C84.1451 256.893 86.6487 258.567 89.404 259.709C92.1592 260.851 95.1123 261.439 98.0947 261.439H181.225C187.248 261.439 193.024 259.045 197.283 254.783C201.542 250.521 203.935 244.742 203.935 238.715V90.5284H205.367L205.367 62.5814Z" fill="#E4EDE3"/>
<path d="M182.226 6.74316H171.354C171.854 7.96511 172.044 9.29088 171.909 10.6037C171.774 11.9165 171.317 13.176 170.579 14.2712C169.84 15.3665 168.843 16.2639 167.674 16.8844C166.505 17.5049 165.202 17.8294 163.878 17.8293H116.157C114.833 17.8293 113.529 17.5047 112.361 16.8842C111.193 16.2636 110.195 15.3662 109.457 14.2709C108.718 13.1757 108.261 11.9162 108.126 10.6035C107.991 9.29076 108.182 7.96505 108.682 6.74316H98.5265C94.0194 6.74316 89.697 8.52769 86.5101 11.7042C83.3231 14.8807 81.5327 19.1889 81.5327 23.6811V238.353C81.5327 242.845 83.3231 247.153 86.5101 250.33C89.697 253.506 94.0194 255.291 98.5265 255.291H182.226C186.733 255.291 191.055 253.506 194.242 250.33C197.429 247.153 199.22 242.845 199.22 238.353V23.6808C199.22 19.1886 197.429 14.8805 194.242 11.704C191.055 8.52764 186.733 6.74316 182.226 6.74316Z" fill="white"/>
<path d="M129.25 91.9355C129.25 90.3936 129.629 88.8788 130.349 87.5436C131.068 86.2084 132.103 85.0999 133.35 84.3296C132.104 83.5586 130.691 83.1525 129.252 83.1523C127.813 83.1522 126.399 83.5579 125.153 84.3287C123.907 85.0995 122.872 86.2082 122.153 87.5434C121.433 88.8786 121.054 90.3932 121.054 91.9349C121.054 93.4767 121.433 94.9913 122.153 96.3265C122.872 97.6617 123.907 98.7704 125.153 99.5412C126.399 100.312 127.813 100.718 129.252 100.718C130.691 100.717 132.104 100.311 133.35 99.5402C132.104 98.7702 131.068 97.6619 130.349 96.3269C129.629 94.9918 129.25 93.4772 129.25 91.9355Z" fill="#8B8B8B"/>
<path d="M140.375 91.9355C140.374 90.3936 140.78 88.8788 141.551 87.5435C142.323 86.2083 143.432 85.0998 144.767 84.3296C143.432 83.5586 141.918 83.1525 140.376 83.1523C138.835 83.1522 137.32 83.5579 135.985 84.3287C134.65 85.0995 133.541 86.2082 132.77 87.5434C131.999 88.8786 131.594 90.3932 131.594 91.9349C131.594 93.4767 131.999 94.9913 132.77 96.3265C133.541 97.6617 134.65 98.7704 135.985 99.5412C137.32 100.312 138.835 100.718 140.376 100.718C141.918 100.717 143.432 100.311 144.767 99.5402C143.432 98.7702 142.323 97.6619 141.552 96.3269C140.78 94.9918 140.375 93.4772 140.375 91.9355Z" fill="#8B8B8B"/>
<path d="M150.915 100.718C155.766 100.718 159.698 96.7854 159.698 91.9349C159.698 87.0844 155.766 83.1523 150.915 83.1523C146.065 83.1523 142.133 87.0844 142.133 91.9349C142.133 96.7854 146.065 100.718 150.915 100.718Z" fill="#47A138"/>
<path d="M164.929 119.161H114.945C114.469 119.16 114.013 118.971 113.676 118.634C113.34 118.298 113.15 117.842 113.15 117.366V67.3818C113.15 66.9059 113.34 66.4497 113.676 66.1132C114.013 65.7768 114.469 65.5875 114.945 65.5869H164.929C165.405 65.5875 165.861 65.7768 166.197 66.1132C166.534 66.4497 166.723 66.9059 166.724 67.3818V117.366C166.723 117.842 166.534 118.298 166.197 118.634C165.861 118.971 165.405 119.16 164.929 119.161ZM114.945 66.3053C114.659 66.3056 114.386 66.4191 114.184 66.621C113.982 66.8229 113.868 67.0966 113.868 67.3821V117.366C113.868 117.652 113.982 117.926 114.184 118.127C114.386 118.329 114.659 118.443 114.945 118.443H164.929C165.214 118.443 165.488 118.329 165.69 118.127C165.892 117.926 166.005 117.652 166.006 117.366V67.3821C166.005 67.0966 165.892 66.8229 165.69 66.621C165.488 66.4191 165.214 66.3056 164.929 66.3053H114.945Z" fill="#8B8B8B"/>
<path d="M187.603 154.593H94.5078V155.471H187.603V154.593Z" fill="#004D61"/>
<path d="M187.603 181.819H94.5078V182.698H187.603V181.819Z" fill="#004D61"/>
<path d="M97.3573 149.103C99.0774 149.103 100.472 147.709 100.472 145.989C100.472 144.268 99.0774 142.874 97.3573 142.874C95.6371 142.874 94.2427 144.268 94.2427 145.989C94.2427 147.709 95.6371 149.103 97.3573 149.103Z" fill="#47A138"/>
<path d="M97.3573 175.727C99.0774 175.727 100.472 174.333 100.472 172.613C100.472 170.892 99.0774 169.498 97.3573 169.498C95.6371 169.498 94.2427 170.892 94.2427 172.613C94.2427 174.333 95.6371 175.727 97.3573 175.727Z" fill="#47A138"/>
<path d="M185.406 214.946H154.238C153.7 214.946 153.184 214.732 152.803 214.351C152.422 213.97 152.208 213.454 152.208 212.916V201.992C152.208 201.453 152.422 200.937 152.803 200.556C153.184 200.176 153.7 199.962 154.238 199.961H185.406C185.945 199.962 186.461 200.176 186.841 200.556C187.222 200.937 187.436 201.453 187.437 201.992V212.916C187.436 213.454 187.222 213.97 186.841 214.351C186.461 214.732 185.945 214.946 185.406 214.946Z" fill="#47A138"/>
<path d="M107.516 149.103C109.237 149.103 110.631 147.709 110.631 145.989C110.631 144.268 109.237 142.874 107.516 142.874C105.796 142.874 104.402 144.268 104.402 145.989C104.402 147.709 105.796 149.103 107.516 149.103Z" fill="#47A138"/>
<path d="M107.516 175.727C109.237 175.727 110.631 174.333 110.631 172.613C110.631 170.892 109.237 169.498 107.516 169.498C105.796 169.498 104.402 170.892 104.402 172.613C104.402 174.333 105.796 175.727 107.516 175.727Z" fill="#47A138"/>
<path d="M117.676 149.103C119.396 149.103 120.79 147.709 120.79 145.989C120.79 144.268 119.396 142.874 117.676 142.874C115.956 142.874 114.561 144.268 114.561 145.989C114.561 147.709 115.956 149.103 117.676 149.103Z" fill="#47A138"/>
<path d="M117.676 175.727C119.396 175.727 120.79 174.333 120.79 172.613C120.79 170.892 119.396 169.498 117.676 169.498C115.956 169.498 114.561 170.892 114.561 172.613C114.561 174.333 115.956 175.727 117.676 175.727Z" fill="#47A138"/>
<path d="M325.999 262.192H2.00102C1.30743 262.192 0.745605 261.945 0.745605 261.642C0.745605 261.339 1.30743 261.092 2.00102 261.092H325.999C326.692 261.092 327.255 261.338 327.255 261.642C327.255 261.946 326.692 262.192 325.999 262.192Z" fill="#212121"/>
<path d="M205.725 105.179L205.95 105.328L206.198 105.223L233.592 93.56L233.854 93.4487L233.892 93.1672L234.811 86.3991L244.8 86.3381L244.188 101.955L208.389 111.399L208.119 111.47L208.038 111.737C207.969 111.966 207.885 112.191 207.788 112.411C207.307 113.432 206.535 114.289 205.568 114.875C204.599 115.461 203.478 115.749 202.345 115.703C201.213 115.656 200.119 115.276 199.202 114.612C198.285 113.947 197.586 113.027 197.192 111.968C196.797 110.909 196.726 109.757 196.986 108.657C197.245 107.557 197.825 106.558 198.653 105.785C199.48 105.013 200.518 104.501 201.636 104.315C202.754 104.129 203.901 104.276 204.935 104.739C205.21 104.864 205.474 105.011 205.725 105.179Z" stroke="#212121"/>
<path d="M248.738 254.833H242.38L239.024 226.44L248.739 226.441L248.738 254.833Z" stroke="#212121"/>
<path d="M236.77 252.394H251.199V262.191H227.685C227.685 259.593 228.642 257.101 230.345 255.263C232.049 253.426 234.36 252.394 236.77 252.394Z" fill="#212121"/>
<path d="M275.375 224.527L278.086 252.193L271.632 252.832L265.526 225.503L275.375 224.527Z" stroke="#212121"/>
<path d="M265.85 251.889L280.307 250.465L281.203 259.567L257.644 261.888C257.526 260.692 257.645 259.485 257.994 258.336C258.343 257.187 258.914 256.117 259.676 255.189C260.438 254.26 261.376 253.491 262.435 252.925C263.494 252.358 264.655 252.006 265.85 251.889Z" fill="#212121"/>
<path d="M251.689 54.4829C260.076 54.4829 266.875 47.6838 266.875 39.2966C266.875 30.9095 260.076 24.1104 251.689 24.1104C243.302 24.1104 236.502 30.9095 236.502 39.2966C236.502 47.6838 243.302 54.4829 251.689 54.4829Z" fill="#FF5031"/>
<path d="M240.376 249.455C239.733 249.456 239.109 249.228 238.616 248.81C238.123 248.392 237.791 247.812 237.68 247.17C233.805 225.406 221.139 154.243 220.836 152.271C220.829 152.226 220.826 152.18 220.826 152.134V146.828C220.826 146.635 220.885 146.447 220.997 146.29L222.67 143.918C222.75 143.804 222.854 143.71 222.975 143.643C223.096 143.576 223.231 143.538 223.368 143.532C232.908 143.08 264.151 141.753 265.66 143.661C267.176 145.579 266.64 151.389 266.517 152.534L266.523 152.653L280.56 243.474C280.669 244.199 280.493 244.938 280.068 245.531C279.644 246.125 279.005 246.526 278.291 246.647L269.524 248.108C268.871 248.214 268.202 248.08 267.639 247.729C267.076 247.378 266.656 246.835 266.455 246.197C263.744 237.431 254.652 207.941 251.501 196.53C251.481 196.458 251.436 196.396 251.374 196.354C251.312 196.313 251.238 196.296 251.164 196.307C251.091 196.317 251.024 196.354 250.976 196.411C250.927 196.468 250.901 196.541 250.902 196.616C251.06 207.494 251.44 235.246 251.571 244.831L251.586 245.864C251.591 246.562 251.338 247.238 250.875 247.757C250.412 248.276 249.774 248.6 249.086 248.666L240.633 249.443C240.547 249.451 240.461 249.455 240.376 249.455Z" fill="#212121"/>
<path d="M242.069 60.784C239.392 62.3486 237.791 65.224 236.872 68.15C235.17 73.5669 234.146 79.1676 233.822 84.8281L232.85 101.777L220.826 146.71C231.248 155.381 237.259 153.41 251.288 146.317C265.317 139.224 266.92 148.682 266.92 148.682L269.725 110.45L273.733 68.6727C272.833 67.6073 271.815 66.6445 270.697 65.8023C266.993 62.9695 262.682 61.0004 258.091 60.0435C253.5 59.0867 248.748 59.167 244.194 60.2784L242.069 60.784Z" fill="#47A138"/>
<path d="M238.964 114.219L239.199 114.355L239.44 114.232L266.603 100.424L266.858 100.294L266.875 100.008L267.3 92.9656L277.55 92.2478L278.119 108.41L242.174 120.484L241.908 120.573L241.846 120.846C241.572 122.04 240.947 123.119 240.055 123.942C239.163 124.764 238.047 125.29 236.856 125.452C235.664 125.613 234.452 125.402 233.38 124.847C232.309 124.291 231.428 123.417 230.855 122.339C230.283 121.261 230.047 120.03 230.18 118.812C230.313 117.593 230.808 116.445 231.597 115.521C232.387 114.597 233.434 113.939 234.599 113.635C235.763 113.332 236.99 113.395 238.118 113.816C238.41 113.928 238.693 114.063 238.964 114.219Z" stroke="#212121"/>
<path d="M272.969 69.0072C279.45 71.3567 280.592 96.8103 280.592 96.8103C272.967 92.503 263.817 99.5515 263.817 99.5515C263.817 99.5515 261.911 92.8947 259.624 84.2801C258.933 81.857 258.851 79.2938 259.384 76.8291C259.917 74.3644 261.049 72.0783 262.673 70.1836C262.673 70.1836 266.488 66.6563 272.969 69.0072Z" fill="#47A138"/>
<path d="M237.619 32.5892C237.409 32.9158 237.231 33.249 237.081 33.5731C236.969 31.6174 236.977 29.6559 237.106 27.6996C237.276 26.2217 238.46 24.6339 240.795 23.106C243.12 21.5851 246.5 20.1833 250.861 19.0558C255.022 17.9796 258.192 19.7577 260.362 21.8636C261.449 22.9173 262.272 24.0432 262.825 24.9081C263.101 25.3398 263.308 25.7044 263.445 25.9595C263.514 26.0871 263.565 26.1871 263.598 26.2543C263.615 26.2879 263.627 26.3133 263.635 26.3298L263.644 26.3478L263.646 26.3517L263.646 26.352L263.646 26.3523L263.646 26.3523L263.72 26.5111L263.877 26.589C265.229 27.2588 266.142 28.6613 266.695 30.4805C267.246 32.2927 267.415 34.4434 267.336 36.4777C267.258 38.5121 266.932 40.3912 266.52 41.6521C266.31 42.2932 266.094 42.7233 265.912 42.941C265.878 42.9815 265.85 43.0079 265.83 43.025C264.634 42.1091 263.267 42.5436 262.341 43.0621C261.997 43.2552 261.688 43.4726 261.434 43.6714L260.014 31.0047L259.958 30.5046L259.458 30.5639L259.458 30.5639L259.457 30.5641L259.452 30.5646L259.433 30.5669L259.354 30.5758C259.283 30.5836 259.179 30.5949 259.044 30.6088C258.774 30.6365 258.381 30.6746 257.889 30.7156C256.905 30.7977 255.53 30.8915 253.966 30.9384C250.825 31.0325 246.968 30.9356 243.982 30.1969C242.359 29.7952 241.035 29.9509 239.969 30.4491C238.912 30.9439 238.155 31.7548 237.619 32.5892Z" stroke="#212121"/>
<path d="M246.812 40.5673C246.687 40.4865 246.572 40.3573 246.477 40.1882C246.413 40.0677 246.365 39.923 246.335 39.7644C246.305 39.6058 246.294 39.437 246.303 39.2699C246.309 39.1508 246.329 39.0356 246.362 38.9333C246.396 38.831 246.442 38.7443 246.496 38.6801C246.638 38.5193 246.826 38.5254 247.015 38.6871L247.037 35.8672L247.191 35.8712L247.165 39.1863L247.048 39.0449C246.912 38.8811 246.717 38.7624 246.577 38.9214C246.542 38.9635 246.513 39.0198 246.492 39.0858C246.471 39.1519 246.459 39.226 246.456 39.3024C246.45 39.4268 246.458 39.5524 246.48 39.6706C246.502 39.7887 246.538 39.8967 246.585 39.987C246.752 40.2917 246.998 40.3938 247.28 40.4872L247.253 40.766C247.103 40.7241 246.956 40.6576 246.812 40.5673Z" fill="#212121"/>
<path d="M242.933 36.8085L245.165 37.1465L245.102 37.5608L242.87 37.2228L242.933 36.8085Z" fill="#212121"/>
<path d="M254.341 36.8085L252.109 37.1465L252.171 37.5608L254.403 37.2228L254.341 36.8085Z" fill="#212121"/>
</svg>
