<svg width="447" height="382" viewBox="0 0 447 382" fill="none" xmlns="http://www.w3.org/2000/svg">
<g clip-path="url(#clip0_13035_11712)">
<path d="M377.551 268.745H0.0970459V0.297852H377.551V268.745Z" fill="white"/>
<path d="M30.8439 110.554C29.8685 110.554 28.933 110.942 28.2433 111.632C27.5536 112.323 27.1661 113.259 27.1661 114.236C27.1661 115.212 27.5536 116.149 28.2433 116.84C28.933 117.53 29.8685 117.918 30.8439 117.918H158.311C159.285 117.916 160.219 117.527 160.907 116.837C161.595 116.147 161.982 115.211 161.982 114.236C161.982 113.261 161.595 112.325 160.907 111.635C160.219 110.944 159.285 110.556 158.311 110.554H30.8439Z" fill="#47A138"/>
<path d="M30.8438 132.647C29.8684 132.645 28.9322 133.031 28.241 133.72C27.5498 134.409 27.1604 135.345 27.1583 136.321C27.1563 137.298 27.5418 138.235 28.23 138.927C28.9183 139.619 29.8529 140.009 30.8283 140.011H158.405C159.381 140.011 160.316 139.623 161.006 138.933C161.695 138.242 162.083 137.306 162.083 136.329C162.083 135.353 161.695 134.416 161.006 133.725C160.316 133.035 159.381 132.647 158.405 132.647H30.8438Z" fill="#47A138"/>
<path d="M30.8438 154.424C29.8684 154.422 28.9322 154.808 28.241 155.497C27.5498 156.186 27.1604 157.122 27.1583 158.099C27.1563 159.075 27.5418 160.013 28.23 160.705C28.9183 161.397 29.8529 161.787 30.8283 161.789H59.5369C60.5123 161.789 61.4477 161.401 62.1375 160.71C62.8272 160.02 63.2146 159.083 63.2146 158.106C63.2146 157.13 62.8272 156.193 62.1375 155.503C61.4477 154.812 60.5123 154.424 59.5369 154.424H30.8438Z" fill="#47A138"/>
<path d="M377.551 268.745H0.0970459V0.297852H377.551V268.745ZM6.30177 262.533H371.346V6.51004H6.30177V262.533Z" fill="#E4EDE3"/>
<path d="M258.784 209.759C257.03 209.756 255.347 210.451 254.105 211.691C252.863 212.93 252.163 214.613 252.159 216.368C252.156 218.124 252.849 219.81 254.086 221.054C255.323 222.299 257.002 223.001 258.756 223.006H321.925C322.794 223.007 323.655 222.836 324.458 222.503C325.262 222.171 325.992 221.683 326.607 221.068C327.222 220.453 327.71 219.723 328.043 218.919C328.376 218.114 328.547 217.253 328.547 216.382C328.547 215.512 328.376 214.65 328.043 213.846C327.71 213.042 327.222 212.312 326.607 211.696C325.992 211.081 325.262 210.594 324.458 210.261C323.655 209.929 322.794 209.758 321.925 209.759H258.784Z" fill="#E4EDE3"/>
<path d="M258.784 129.548C257.03 129.545 255.347 130.24 254.105 131.48C252.863 132.719 252.163 134.402 252.159 136.157C252.156 137.913 252.849 139.599 254.086 140.843C255.323 142.088 257.002 142.79 258.756 142.795H321.925C322.794 142.796 323.655 142.625 324.458 142.293C325.262 141.96 325.992 141.472 326.607 140.857C327.222 140.242 327.71 139.512 328.043 138.708C328.376 137.904 328.547 137.042 328.547 136.171C328.547 135.301 328.376 134.439 328.043 133.635C327.71 132.831 327.222 132.101 326.607 131.485C325.992 130.87 325.262 130.383 324.458 130.05C323.655 129.718 322.794 129.547 321.925 129.548H258.784Z" fill="#E4EDE3"/>
<path d="M30.8438 212.827C30.3609 212.826 29.8824 212.92 29.4358 213.104C28.9892 213.288 28.5832 213.558 28.241 213.9C27.8988 214.241 27.627 214.646 27.4412 215.093C27.2555 215.539 27.1594 216.018 27.1583 216.501C27.1573 216.985 27.2514 217.464 27.4353 217.911C27.6192 218.358 27.8893 218.764 28.23 219.107C28.5708 219.45 28.9757 219.722 29.4215 219.908C29.8673 220.094 30.3454 220.19 30.8283 220.191H158.405C159.381 220.191 160.316 219.803 161.006 219.113C161.695 218.422 162.083 217.485 162.083 216.509C162.083 215.532 161.695 214.596 161.006 213.905C160.316 213.215 159.381 212.827 158.405 212.827H30.8438Z" fill="#E4EDE3"/>
<path d="M30.8438 234.604C30.3609 234.603 29.8824 234.697 29.4358 234.881C28.9892 235.065 28.5832 235.335 28.241 235.677C27.8988 236.018 27.627 236.423 27.4413 236.869C27.2555 237.316 27.1594 237.794 27.1583 238.278C27.1573 238.762 27.2514 239.241 27.4353 239.688C27.6192 240.135 27.8893 240.541 28.23 240.884C28.5708 241.227 28.9757 241.499 29.4215 241.685C29.8673 241.871 30.3454 241.967 30.8283 241.968H59.5369C60.5123 241.968 61.4477 241.58 62.1375 240.889C62.8272 240.199 63.2146 239.262 63.2146 238.286C63.2146 237.309 62.8272 236.373 62.1375 235.682C61.4477 234.991 60.5123 234.604 59.5369 234.604H30.8438Z" fill="#E4EDE3"/>
<path d="M30.8439 190.733C29.8685 190.733 28.933 191.121 28.2433 191.812C27.5536 192.502 27.1661 193.439 27.1661 194.416C27.1661 195.392 27.5536 196.329 28.2433 197.019C28.933 197.71 29.8685 198.098 30.8439 198.098H158.311C159.285 198.096 160.219 197.707 160.907 197.017C161.595 196.326 161.982 195.391 161.982 194.416C161.982 193.44 161.595 192.505 160.907 191.814C160.219 191.124 159.285 190.735 158.311 190.733H30.8439Z" fill="#E4EDE3"/>
<path d="M30.8439 30.3745C29.8685 30.3745 28.933 30.7625 28.2433 31.453C27.5536 32.1435 27.1661 33.0801 27.1661 34.0567C27.1661 35.0333 27.5536 35.9698 28.2433 36.6604C28.933 37.3509 29.8685 37.7389 30.8439 37.7389H158.311C159.285 37.737 160.219 37.3483 160.907 36.6579C161.595 35.9676 161.982 35.0321 161.982 34.0567C161.982 33.0813 161.595 32.1458 160.907 31.4555C160.219 30.7651 159.285 30.3764 158.311 30.3745H30.8439Z" fill="#E4EDE3"/>
<path d="M30.8438 52.4673C30.3609 52.4663 29.8824 52.5605 29.4358 52.7446C28.9892 52.9287 28.5832 53.1991 28.241 53.5403C27.8988 53.8815 27.627 54.2868 27.4412 54.7332C27.2555 55.1795 27.1594 55.6582 27.1583 56.1417C27.1573 56.6253 27.2514 57.1043 27.4353 57.5514C27.6192 57.9985 27.8893 58.405 28.23 58.7477C28.5708 59.0903 28.9757 59.3624 29.4215 59.5484C29.8673 59.7344 30.3454 59.8306 30.8283 59.8316H158.405C158.888 59.8316 159.366 59.7364 159.813 59.5514C160.259 59.3663 160.664 59.0951 161.006 58.7532C161.347 58.4112 161.618 58.0053 161.803 57.5586C161.988 57.1118 162.083 56.633 162.083 56.1495C162.083 55.6659 161.988 55.1871 161.803 54.7404C161.618 54.2936 161.347 53.8877 161.006 53.5458C160.664 53.2039 160.259 52.9326 159.813 52.7476C159.366 52.5625 158.888 52.4673 158.405 52.4673H30.8438Z" fill="#E4EDE3"/>
<path d="M30.8438 74.2446C29.8684 74.2426 28.9322 74.6285 28.241 75.3176C27.5498 76.0067 27.1604 76.9425 27.1583 77.919C27.1563 78.8956 27.5418 79.833 28.23 80.525C28.9183 81.217 29.8529 81.6069 30.8283 81.609H59.5369C60.5123 81.609 61.4477 81.221 62.1375 80.5305C62.8272 79.84 63.2146 78.9034 63.2146 77.9268C63.2146 76.9502 62.8272 76.0137 62.1375 75.3231C61.4477 74.6326 60.5123 74.2446 59.5369 74.2446H30.8438Z" fill="#E4EDE3"/>
<path d="M258.784 49.3994C257.03 49.397 255.347 50.0918 254.105 51.3312C252.863 52.5706 252.163 54.2531 252.159 56.0089C252.156 57.7648 252.849 59.4502 254.086 60.6948C255.323 61.9395 257.002 62.6414 258.756 62.6464H321.925C322.794 62.6473 323.655 62.4766 324.458 62.1441C325.262 61.8116 325.992 61.3239 326.607 60.7088C327.222 60.0936 327.71 59.3632 328.043 58.5591C328.376 57.7551 328.547 56.8933 328.547 56.0229C328.547 55.1525 328.376 54.2907 328.043 53.4867C327.71 52.6826 327.222 51.9522 326.607 51.3371C325.992 50.7219 325.262 50.2342 324.458 49.9017C323.655 49.5692 322.794 49.3986 321.925 49.3994H258.784Z" fill="#E4EDE3"/>
<path d="M272.092 67.8385C278.644 67.8385 283.956 62.5203 283.956 55.96C283.956 49.3997 278.644 44.0815 272.092 44.0815C265.539 44.0815 260.227 49.3997 260.227 55.96C260.227 62.5203 265.539 67.8385 272.092 67.8385Z" fill="#F9F9F9"/>
<path d="M293.323 139.112L293.323 139.108C293.519 137.623 294.251 136.26 295.382 135.28C296.513 134.299 297.964 133.768 299.46 133.787C300.956 133.805 302.394 134.373 303.5 135.382C304.606 136.391 305.304 137.771 305.462 139.262L305.471 139.347L305.508 139.425L314.397 158.009L306.191 159.617L300.055 146.314L299.915 146.01L299.581 146.024C298.694 146.058 297.809 145.898 296.99 145.554C296.171 145.21 295.438 144.69 294.841 144.031C294.244 143.372 293.799 142.59 293.537 141.74C293.274 140.89 293.201 139.993 293.323 139.112Z" stroke="#212121"/>
<path d="M356.651 190.739L330.946 178.008L312.807 147.186L300.128 153.326L316.582 188.933L358.149 212.957L356.651 190.739Z" fill="#004D61"/>
<path d="M298.119 350.122L298.118 372.449L290.961 372.448L287.281 350.122L298.119 350.122Z" stroke="#212121"/>
<path d="M300.678 380.791L274.623 380.79V380.46C274.623 377.767 275.692 375.185 277.594 373.281C279.495 371.377 282.075 370.307 284.764 370.307H284.765L300.679 370.307L300.678 380.791Z" fill="#212121"/>
<path d="M378.571 358.119L373.577 363.252L355.036 350.315L362.597 342.541L378.571 358.119Z" stroke="#212121"/>
<path d="M386.327 362.104L368.147 380.791L367.911 380.561C365.984 378.682 364.882 376.114 364.847 373.421C364.811 370.728 365.845 368.132 367.722 366.203L378.826 354.789L386.327 362.104Z" fill="#212121"/>
<path d="M308.608 234.123H303.019C288.49 250.018 277.399 268.75 270.443 289.14L263.767 308.713L287.563 358.596L302.411 358.861L285.44 305.901L302.538 283.2L303.4 328.835L358.431 357.715L369.445 341.425L324.665 316.909L332.291 278.093C332.291 278.093 347.634 265.282 338.7 245.255L308.608 234.123Z" fill="#212121"/>
<path d="M382.165 183.324L358.94 173.14L333.378 184.481C333.378 184.481 326.14 188.603 330.753 199.162L303.019 234.123C303.019 234.123 303.07 234.137 337.926 245.255L369.373 217.528C374.148 213.318 377.814 207.995 380.045 202.029C382.276 196.063 383.004 189.638 382.165 183.324Z" fill="#004D61"/>
<path d="M378.267 172.839C387.208 172.839 394.456 165.583 394.456 156.631C394.456 147.68 387.208 140.423 378.267 140.423C369.326 140.423 362.078 147.68 362.078 156.631C362.078 165.583 369.326 172.839 378.267 172.839Z" fill="#47A138"/>
<path d="M399.233 135.122C395.517 132.096 389.755 131.435 385.92 134.307C379.23 130.791 370.19 132.625 365.394 138.47C363.669 140.573 362.446 143.419 363.3 146.003C364.154 148.587 367.836 150.106 369.755 148.178L369.721 148.972C371.45 150.706 372.648 152.897 373.176 155.289C373.704 157.681 373.538 160.174 372.699 162.475C371.86 164.776 370.382 166.789 368.439 168.278C366.497 169.767 364.17 170.67 361.732 170.88C367.037 173.026 372.342 175.172 377.647 177.317C379.879 178.22 382.182 179.137 384.59 179.125C386.997 179.113 389.563 177.942 390.497 175.72C391.169 177.781 391.84 179.843 392.512 181.904C396.466 175.605 399.718 168.892 402.211 161.884C403.817 157.366 405.115 152.642 404.942 147.85C404.768 143.058 402.948 138.148 399.233 135.122Z" fill="#212121"/>
<path d="M272.092 228.198C278.644 228.198 283.956 222.88 283.956 216.319C283.956 209.759 278.644 204.441 272.092 204.441C265.539 204.441 260.227 209.759 260.227 216.319C260.227 222.88 265.539 228.198 272.092 228.198Z" fill="#F9F9F9"/>
<path d="M309.002 148.049C315.555 148.049 320.867 142.731 320.867 136.171C320.867 129.611 315.555 124.292 309.002 124.292C302.45 124.292 297.138 129.611 297.138 136.171C297.138 142.731 302.45 148.049 309.002 148.049Z" fill="#47A138"/>
<path d="M309.801 132.512L309.801 132.509C309.997 131.024 310.729 129.661 311.86 128.681C312.991 127.7 314.442 127.169 315.938 127.187C317.434 127.206 318.872 127.774 319.978 128.783C321.084 129.792 321.782 131.172 321.94 132.662L321.949 132.748L321.986 132.826L330.875 151.409L322.669 153.018L316.533 139.715L316.393 139.411L316.059 139.424C315.172 139.459 314.287 139.299 313.468 138.955C312.649 138.611 311.916 138.091 311.319 137.432C310.722 136.773 310.277 135.991 310.015 135.141C309.752 134.291 309.679 133.394 309.801 132.512Z" stroke="#212121"/>
<path d="M373.129 184.139L347.424 171.409L329.285 140.586L316.606 146.727L333.06 182.334L374.627 206.358L373.129 184.139Z" fill="#004D61"/>
<path d="M433.465 381.298H182.34C182.165 381.298 181.997 381.228 181.873 381.105C181.75 380.981 181.68 380.813 181.68 380.638C181.68 380.463 181.75 380.295 181.873 380.171C181.997 380.048 182.165 379.978 182.34 379.978H433.465C433.64 379.978 433.807 380.048 433.931 380.171C434.054 380.295 434.124 380.463 434.124 380.638C434.124 380.813 434.054 380.981 433.931 381.105C433.807 381.228 433.64 381.298 433.465 381.298Z" fill="#F9F9F9"/>
</g>
<defs>
<clipPath id="clip0_13035_11712">
<rect width="446" height="381" fill="white" transform="translate(0.0970459 0.297852)"/>
</clipPath>
</defs>
</svg>
