<svg width="252" height="177" viewBox="0 0 252 177" fill="none" xmlns="http://www.w3.org/2000/svg">
<path d="M231.631 176.604L232.386 176.589C232.094 168.185 231.197 159.814 229.703 151.539C226.435 133.823 221.001 122.188 213.551 116.957L213.117 117.576C230.52 129.795 231.622 176.137 231.631 176.604Z" fill="#212121"/>
<path d="M222.183 176.423L222.939 176.408C222.923 175.571 222.45 155.845 214.684 150.393L214.25 151.011C221.703 156.244 222.179 176.222 222.183 176.423Z" fill="#212121"/>
<path d="M208.817 117.644C210.904 117.644 212.596 115.952 212.596 113.865C212.596 111.778 210.904 110.086 208.817 110.086C206.73 110.086 205.038 111.778 205.038 113.865C205.038 115.952 206.73 117.644 208.817 117.644Z" fill="#004D61"/>
<path d="M210.689 150.143C212.776 150.143 214.468 148.451 214.468 146.364C214.468 144.277 212.776 142.585 210.689 142.585C208.602 142.585 206.91 144.277 206.91 146.364C206.91 148.451 208.602 150.143 210.689 150.143Z" fill="#004D61"/>
<path d="M223.945 119.909C223.235 124.446 225.086 128.503 225.086 128.503C225.086 128.503 228.088 125.206 228.798 120.669C229.508 116.133 227.657 112.076 227.657 112.076C227.657 112.076 224.655 115.373 223.945 119.909Z" fill="#212121"/>
<path d="M211.592 130.927C215.935 132.416 220.253 131.301 220.253 131.301C220.253 131.301 217.529 127.77 213.186 126.28C208.843 124.79 204.525 125.906 204.525 125.906C204.525 125.906 207.249 129.437 211.592 130.927Z" fill="#212121"/>
<path d="M211.453 159.708C213.419 160.325 215.512 160.416 217.524 159.97C216.246 158.344 214.526 157.122 212.57 156.451C210.614 155.78 208.506 155.689 206.5 156.189C207.814 157.775 209.522 158.989 211.453 159.708Z" fill="#212121"/>
<path d="M123.03 59.0922L123.225 59.1934L123.431 59.1188C124.053 58.8936 124.726 58.8496 125.372 58.9918C126.018 59.1339 126.61 59.4564 127.08 59.9218C127.55 60.3872 127.878 60.9764 128.027 61.6209C128.175 62.2654 128.137 62.9388 127.918 63.5629C127.699 64.1869 127.308 64.736 126.789 65.1464C126.27 65.5567 125.646 65.8114 124.988 65.881C124.33 65.9505 123.666 65.832 123.073 65.5392C122.48 65.2464 121.983 64.7914 121.638 64.227L121.55 64.0834L121.393 64.022L96.2765 54.1841L82.2868 42.3375L77.2948 35.3944L79.2855 32.0765L79.2924 32.065L79.2964 32.0575L79.3018 32.0484C79.3087 32.0372 79.3213 32.0175 79.3401 31.9914C79.3779 31.9391 79.4397 31.8625 79.5282 31.7786C79.7039 31.612 79.9849 31.4163 80.402 31.3204C81.2263 31.1307 82.7511 31.2991 85.2663 33.2912C87.8077 35.3041 91.1181 38.5534 93.8054 41.3142C95.1462 42.6917 96.3269 43.9426 97.1725 44.849C97.5952 45.3021 97.9341 45.6691 98.1671 45.9226C98.2836 46.0493 98.3736 46.1477 98.4345 46.2143L98.5035 46.29L98.5209 46.3092L98.5253 46.314L98.5263 46.3151L98.5266 46.3154L98.8968 45.9793L98.5266 46.3155L98.5868 46.3817L98.6661 46.423L123.03 59.0922Z" stroke="#444444"/>
<path d="M54.2195 38.325L54.2298 38.3276L54.2379 38.3301L54.251 38.3334L58.0048 39.2718L59.3843 47.7113L57.869 65.9803L47.0651 90.697L46.9974 90.8519L47.0376 91.0161C47.1953 91.661 47.1666 92.3374 46.9548 92.9666C46.7429 93.5958 46.3567 94.1519 45.8411 94.5701C45.3254 94.9883 44.7016 95.2514 44.0422 95.3288C43.3829 95.4062 42.7151 95.2947 42.1166 95.0072C41.5181 94.7198 41.0137 94.2682 40.6619 93.7052C40.3102 93.1421 40.1256 92.4907 40.1297 91.8268C40.1338 91.1629 40.3265 90.5139 40.6852 89.9552C41.0439 89.3966 41.5539 88.9513 42.1559 88.6713L42.3555 88.5785L42.4218 88.3685L50.6913 62.182L50.7182 62.0967L50.7139 62.0074L50.2145 62.0315L50.7139 62.0073L50.7139 62.0069L50.7138 62.0054L50.7135 61.9989L50.7123 61.973L50.7076 61.8707C50.7035 61.7806 50.6976 61.6474 50.6903 61.4753C50.6758 61.1313 50.656 60.6323 50.6345 60.0129C50.5914 58.7741 50.5419 57.0547 50.516 55.1325C50.464 51.2801 50.5072 46.6418 50.8809 43.4214C51.2508 40.2342 52.21 39.037 52.9269 38.5882C53.2896 38.3611 53.6267 38.3008 53.8687 38.2943C53.9906 38.2911 54.0884 38.3016 54.1522 38.3119C54.184 38.317 54.2068 38.322 54.2195 38.325Z" stroke="#444444"/>
<path d="M100.876 151.476L98.4639 171.033L94.0765 171.033L94.0755 151.476L100.876 151.476Z" stroke="#F9F9F9"/>
<path d="M92.2168 169.793L102.713 169.792H102.713C104.487 169.793 106.189 170.497 107.443 171.752C108.697 173.006 109.402 174.707 109.402 176.481V176.699L92.2171 176.699L92.2168 169.793Z" fill="#212121"/>
<path d="M42.7448 151.476L40.3328 171.033L35.9451 171.033L35.9444 151.476L42.7448 151.476Z" stroke="#F9F9F9"/>
<path d="M34.0857 169.793L44.5818 169.792H44.5822C46.3562 169.793 48.0575 170.497 49.3119 171.752C50.5663 173.006 51.2711 174.707 51.2712 176.481V176.699L34.086 176.699L34.0857 169.793Z" fill="#212121"/>
<path d="M61.7567 30.063L52.9167 37.6093L60.1715 60.5676L61.8084 65.6942C61.8084 65.6942 51.813 74.91 45.6285 100.654C39.4439 126.398 29.3267 160.606 29.3267 160.606L50.6824 166.719L68.0567 108.483L88.493 154.171L90.8525 167.685L109.039 162.322L104.749 128.432L83.2993 69.7666L85.5274 54.2155C85.5274 54.2155 88.8733 46.4534 83.0607 38.2354L81.2374 30.5135L74.7061 28.9048L61.7567 30.063Z" fill="#212121"/>
<path d="M76.4423 25.4606H52.5431C52.1839 25.4602 51.8395 25.3174 51.5855 25.0634C51.3316 24.8094 51.1887 24.4651 51.1882 24.106V13.8045C51.1882 10.2759 52.5899 6.89186 55.085 4.39679C57.5801 1.90172 60.9641 0.5 64.4927 0.5C68.0213 0.5 71.4053 1.90172 73.9004 4.39679C76.3954 6.89186 77.7971 10.2759 77.7971 13.8045V24.1057C77.7967 24.465 77.6539 24.8094 77.3999 25.0634C77.1459 25.3174 76.8015 25.4602 76.4423 25.4606Z" stroke="#444444"/>
<path d="M76.2099 20.4543C78.8911 15.5496 77.0885 9.40014 72.1839 6.71901C67.2792 4.03788 61.1297 5.8404 58.4486 10.7451C55.7675 15.6497 57.57 21.7992 62.4747 24.4803C67.3793 27.1615 73.5288 25.3589 76.2099 20.4543Z" fill="#004D61"/>
<path d="M71.6188 20.5859C71.8685 20.4893 72.0966 20.3348 72.2877 20.1327C72.4142 19.9886 72.5107 19.8156 72.5703 19.626C72.63 19.4364 72.6514 19.2346 72.6331 19.0348C72.6225 18.8925 72.5822 18.7547 72.5155 18.6324C72.4487 18.5101 72.3573 18.4065 72.2483 18.3297C71.9656 18.1375 71.592 18.1447 71.2148 18.338L71.1712 14.9668L70.8649 14.9716L70.9161 18.9348L71.1493 18.7658C71.4197 18.57 71.8082 18.4281 72.0878 18.6182C72.1569 18.6685 72.2146 18.7358 72.2564 18.8148C72.2982 18.8938 72.323 18.9823 72.3287 19.0736C72.3416 19.2224 72.3254 19.3726 72.281 19.5138C72.2367 19.6551 72.1654 19.7841 72.072 19.8922C71.7399 20.2564 71.2483 20.3785 70.6873 20.4901L70.7415 20.8234C71.0398 20.7734 71.3334 20.6938 71.6188 20.5859Z" fill="#F9F9F9"/>
<path d="M76.4879 15.6178L73.8398 16.0188L73.9143 16.5104L76.5623 16.1094L76.4879 15.6178Z" fill="#F9F9F9"/>
<path d="M62.953 15.6178L65.6011 16.0188L65.5266 16.5104L62.8786 16.1094L62.953 15.6178Z" fill="#F9F9F9"/>
<path d="M66.3277 12.5684L65.6969 14.3347H64.2645L64.0007 10.6405L63.0311 10.508L61.6645 14.3347H58.1671C58.245 11.6789 59.3341 9.14831 61.2181 7.26429C63.1715 5.31081 65.8201 4.21194 68.5827 4.20874H70.6426C73.4053 4.21194 76.0538 5.3108 78.0073 7.26428C79.8913 9.1483 80.9804 11.6789 81.0584 14.3347H67.414L67.2973 12.7009L66.3277 12.5684Z" stroke="#444444"/>
<path d="M155.328 120.604L61.5413 153.763C59.2224 154.58 56.6742 154.444 54.4557 153.384C52.2371 152.325 50.5295 150.429 49.7073 148.112L33.5961 102.543C32.7792 100.224 32.9154 97.6758 33.975 95.4572C35.0345 93.2387 36.9308 91.531 39.2478 90.7089L133.035 57.5497C135.354 56.7328 137.902 56.869 140.12 57.9286C142.339 58.9881 144.046 60.8844 144.869 63.2014L160.98 108.77C161.797 111.089 161.66 113.637 160.601 115.856C159.541 118.074 157.645 119.782 155.328 120.604Z" fill="white"/>
<path d="M160.98 108.77L161.065 109.011C161.848 111.226 161.718 113.661 160.706 115.78C159.693 117.899 157.88 119.529 155.666 120.312L61.4102 153.637C59.1961 154.419 56.7619 154.291 54.6429 153.279C52.5239 152.267 50.8936 150.454 50.1106 148.24L50.0254 147.999L160.98 108.77Z" fill="#E4EDE3"/>
<path d="M55.6886 101.289C49.472 105.38 41.5045 102.301 38.718 97.8171L39.1623 97.5647C44.4547 94.2658 52.3144 96.1037 55.6886 101.289Z" fill="#004D61"/>
<path d="M133.592 112.895C132.071 113.433 130.701 113.408 129.52 112.821C126.851 111.495 125.598 107.563 124.592 104.404C124.299 103.484 124.023 102.616 123.741 101.907L123.737 101.896C123.247 100.488 123.332 98.9438 123.974 97.5986C124.616 96.2534 125.763 95.2159 127.166 94.7114L139.781 90.2512C141.301 89.7139 142.669 89.7384 143.849 90.3241C146.517 91.6485 147.771 95.5792 148.778 98.7376C149.072 99.6586 149.349 100.529 149.632 101.239C150.125 102.648 150.041 104.195 149.399 105.543C148.757 106.89 147.609 107.93 146.204 108.436L133.592 112.895ZM124.266 101.705C124.554 102.431 124.832 103.307 125.127 104.233C126.102 107.292 127.314 111.098 129.77 112.318C130.824 112.842 132.013 112.857 133.405 112.365L146.016 107.906C147.279 107.452 148.313 106.518 148.891 105.306C149.469 104.095 149.547 102.704 149.106 101.436C148.82 100.718 148.539 99.839 148.243 98.9083C147.268 95.851 146.054 92.046 143.599 90.8275C142.546 90.3048 141.358 90.2896 139.968 90.781L127.354 95.241C126.092 95.6951 125.06 96.6284 124.482 97.8384C123.904 99.0485 123.826 100.438 124.266 101.705Z" fill="#212121"/>
<path d="M53.0739 102.762C50.8572 103.531 48.4692 103.662 46.1816 103.141C42.8407 102.407 39.8088 100.412 38.2691 97.9354L38.1147 97.6871L38.8081 97.293C44.1802 93.9469 52.2358 95.7609 55.7129 101.103L55.8654 101.337L55.6319 101.491C54.8339 102.017 53.9749 102.443 53.0739 102.762ZM38.9053 97.8842C40.4122 100.123 43.2161 101.914 46.3022 102.592C49.302 103.292 52.4571 102.783 55.0842 101.175C51.6829 96.2547 44.1473 94.6227 39.1007 97.773L38.9053 97.8842Z" fill="#212121"/>
<path d="M56.3689 135.468C55.5813 135.78 54.7238 135.871 53.8882 135.733C53.0526 135.594 52.2706 135.23 51.626 134.681C50.8716 134.021 50.2997 133.179 49.9654 132.234C49.6311 131.29 49.5457 130.275 49.7174 129.288C49.8769 128.438 50.2685 127.65 50.8487 127.009C51.4289 126.369 52.1751 125.901 53.0047 125.659L69.8131 119.716C70.6108 119.386 71.4843 119.282 72.3373 119.416C73.1903 119.55 73.9897 119.917 74.6473 120.477C75.4013 121.136 75.9728 121.979 76.3066 122.924C76.6405 123.868 76.7255 124.883 76.5535 125.87C76.2216 127.604 75.0505 128.882 73.2655 129.494L56.4568 135.437C56.4275 135.447 56.3982 135.458 56.3689 135.468ZM53.1092 126.217C52.392 126.439 51.7487 126.851 51.2484 127.411C50.7481 127.971 50.4096 128.656 50.2695 129.393C50.1148 130.283 50.1917 131.197 50.4929 132.048C50.7941 132.899 51.3093 133.658 51.989 134.252C52.5717 134.745 53.2797 135.068 54.0345 135.184C54.7894 135.3 55.5616 135.204 56.2655 134.908L73.0822 128.962C73.8165 128.751 74.4779 128.34 74.9932 127.775C75.5084 127.211 75.8574 126.515 76.0015 125.764C76.1565 124.875 76.0799 123.961 75.7791 123.11C75.4783 122.259 74.9634 121.5 74.284 120.906C73.7005 120.412 72.9922 120.09 72.2371 119.973C71.482 119.857 70.7093 119.951 70.0042 120.245L53.1864 126.191C53.1606 126.2 53.1347 126.208 53.1092 126.217L53.1092 126.217Z" fill="#212121"/>
<path d="M133.705 99.4873L128.406 101.361C128.055 101.485 127.668 101.464 127.332 101.304C126.996 101.143 126.737 100.856 126.613 100.504C126.489 100.153 126.509 99.7667 126.67 99.4305C126.83 99.0942 127.118 98.8355 127.469 98.7113L132.768 96.8379C133.119 96.7137 133.505 96.7341 133.842 96.8947C134.178 97.0553 134.437 97.3429 134.561 97.6943C134.685 98.0456 134.665 98.4319 134.504 98.7681C134.343 99.1044 134.056 99.3631 133.705 99.4873Z" fill="#004D61"/>
<path d="M135.203 103.726L129.905 105.599C129.553 105.724 129.167 105.703 128.831 105.543C128.495 105.382 128.236 105.094 128.112 104.743C127.987 104.392 128.008 104.006 128.168 103.669C128.329 103.333 128.617 103.074 128.968 102.95L134.267 101.077C134.618 100.952 135.004 100.973 135.34 101.134C135.677 101.294 135.935 101.582 136.06 101.933C136.184 102.284 136.163 102.671 136.003 103.007C135.842 103.343 135.555 103.602 135.203 103.726Z" fill="#004D61"/>
<path d="M136.702 107.965L131.403 109.838C131.229 109.9 131.045 109.927 130.861 109.917C130.677 109.907 130.496 109.861 130.33 109.782C130.163 109.702 130.014 109.591 129.89 109.453C129.767 109.316 129.672 109.156 129.61 108.982C129.549 108.808 129.522 108.624 129.532 108.44C129.542 108.255 129.588 108.075 129.667 107.908C129.747 107.742 129.858 107.593 129.995 107.469C130.133 107.346 130.293 107.251 130.467 107.189L135.765 105.316C135.939 105.254 136.124 105.228 136.308 105.237C136.492 105.247 136.673 105.293 136.839 105.373C137.006 105.452 137.155 105.564 137.278 105.701C137.402 105.838 137.497 105.998 137.558 106.172C137.62 106.346 137.647 106.53 137.637 106.715C137.627 106.899 137.581 107.079 137.502 107.246C137.422 107.412 137.311 107.562 137.173 107.685C137.036 107.808 136.876 107.904 136.702 107.965Z" fill="#004D61"/>
<path d="M142.977 96.209L137.679 98.0823C137.505 98.1439 137.32 98.1705 137.136 98.1607C136.952 98.151 136.771 98.1051 136.605 98.0255C136.438 97.946 136.289 97.8345 136.166 97.6973C136.042 97.5601 135.947 97.4 135.886 97.226C135.824 97.0521 135.797 96.8677 135.807 96.6834C135.817 96.4992 135.863 96.3187 135.942 96.1522C136.022 95.9857 136.133 95.8365 136.271 95.7131C136.408 95.5897 136.568 95.4945 136.742 95.433L142.041 93.5596C142.392 93.4354 142.778 93.4558 143.114 93.6164C143.451 93.777 143.709 94.0646 143.834 94.4159C143.958 94.7673 143.937 95.1535 143.777 95.4898C143.616 95.8261 143.329 96.0847 142.977 96.209Z" fill="#004D61"/>
<path d="M144.476 100.448L139.177 102.321C139.003 102.383 138.819 102.409 138.635 102.4C138.451 102.39 138.27 102.344 138.103 102.264C137.937 102.185 137.788 102.073 137.664 101.936C137.541 101.799 137.446 101.639 137.384 101.465C137.323 101.291 137.296 101.106 137.306 100.922C137.316 100.738 137.362 100.557 137.441 100.391C137.521 100.224 137.632 100.075 137.769 99.9518C137.907 99.8284 138.067 99.7333 138.241 99.6718L143.539 97.7984C143.713 97.7369 143.898 97.7102 144.082 97.72C144.266 97.7297 144.447 97.7757 144.613 97.8552C144.78 97.9347 144.929 98.0462 145.052 98.1834C145.176 98.3206 145.271 98.4807 145.332 98.6547C145.394 98.8286 145.42 99.013 145.411 99.1973C145.401 99.3815 145.355 99.5621 145.276 99.7285C145.196 99.895 145.084 100.044 144.947 100.168C144.81 100.291 144.65 100.386 144.476 100.448Z" fill="#004D61"/>
<path d="M145.975 104.687L140.676 106.56C140.325 106.684 139.938 106.664 139.602 106.503C139.266 106.343 139.007 106.055 138.883 105.704C138.759 105.352 138.779 104.966 138.94 104.63C139.1 104.294 139.388 104.035 139.739 103.911L145.038 102.037C145.212 101.976 145.396 101.949 145.581 101.959C145.765 101.969 145.945 102.015 146.112 102.094C146.278 102.174 146.428 102.285 146.551 102.422C146.674 102.56 146.77 102.72 146.831 102.894C146.893 103.068 146.919 103.252 146.91 103.436C146.9 103.621 146.854 103.801 146.774 103.968C146.695 104.134 146.583 104.283 146.446 104.407C146.309 104.53 146.149 104.625 145.975 104.687Z" fill="#004D61"/>
<path d="M148.377 73.1206L37.4219 112.35L37.6092 112.88L148.564 73.6505L148.377 73.1206Z" fill="#212121"/>
<path d="M155.328 120.604L61.5413 153.763C59.2224 154.58 56.6742 154.444 54.4557 153.384C52.2371 152.325 50.5295 150.429 49.7073 148.112L33.5961 102.543C32.7792 100.224 32.9154 97.6758 33.975 95.4572C35.0345 93.2387 36.9308 91.531 39.2478 90.7089L133.035 57.5497C135.354 56.7328 137.902 56.869 140.12 57.9286C142.339 58.9881 144.046 60.8844 144.869 63.2014L160.98 108.77C161.797 111.089 161.66 113.637 160.601 115.856C159.541 118.074 157.645 119.782 155.328 120.604ZM39.4352 91.2387C37.2586 92.0111 35.4772 93.6152 34.4819 95.6993C33.4866 97.7834 33.3586 100.177 34.1259 102.355L50.2372 147.924C51.0095 150.101 52.6137 151.882 54.6978 152.877C56.7818 153.873 59.1756 154.001 61.3539 153.233L155.141 120.074C157.317 119.302 159.099 117.698 160.094 115.614C161.089 113.53 161.217 111.136 160.45 108.957L144.339 63.3888C143.566 61.2122 141.962 59.4308 139.878 58.4355C137.794 57.4402 135.4 57.3122 133.222 58.0796L39.4352 91.2387Z" fill="#212121"/>
<path d="M251.252 177H0.747856C0.65771 177 0.571255 176.966 0.507512 176.905C0.443769 176.844 0.407959 176.761 0.407959 176.674C0.407959 176.588 0.443769 176.505 0.507512 176.444C0.571255 176.383 0.65771 176.349 0.747856 176.349H251.252C251.342 176.349 251.429 176.383 251.492 176.444C251.556 176.505 251.592 176.588 251.592 176.674C251.592 176.761 251.556 176.844 251.492 176.905C251.429 176.966 251.342 177 251.252 177Z" fill="#8B8B8B"/>
</svg>
