<svg viewBox="0 0 146 32" fill="none" xmlns="http://www.w3.org/2000/svg" preserveAspectRatio="xMidYMid meet">
  <path
    d="M33.15 26.206l2.727-19.497c1.52-.152 3.638-.227 6.356-.227 2.382 0 4.032.378 4.95 1.131.917.753 1.238 2.111.954 4.068-.205 1.413-.609 2.469-1.208 3.164-.599.697-1.492 1.103-2.673 1.213l-.028.141c2.588.207 3.639 1.96 3.15 5.258-.302 1.96-.938 3.277-1.914 3.954-.975.678-2.587 1.018-4.836 1.018-3.28.004-5.77-.072-7.479-.223zm3.066-2.201l3.994.027c1.537 0 2.615-.22 3.235-.663.62-.444 1.023-1.314 1.208-2.613.188-1.393.041-2.332-.435-2.813-.479-.482-1.475-.73-2.995-.75h-4.049l-.958 6.812zm1.266-8.989h3.882c1.348 0 2.32-.227 2.912-.677.593-.45.98-1.3 1.168-2.545.167-1.186.017-1.967-.452-2.345-.47-.375-1.434-.564-2.896-.564h-3.768l-.846 6.131zm22.895-2.599h2.84c-1.012 4.484-2.333 8.28-3.966 11.389-1.462 2.788-2.913 4.766-4.347 5.935C53.47 30.91 51.76 31.663 49.77 32l-.507-1.95c1.202-.283 2.25-.706 3.15-1.273.9-.564 1.762-1.423 2.587-2.572h-1.267c-.43 0-.797-.117-1.095-.354-.301-.234-.49-.56-.561-.977l-2.642-12.461h2.871l2.081 11.161c.055.32.243.482.562.482h1.379c.075-.13.178-.327.308-.578.13-.254.216-.42.253-.495 1.65-3.446 2.814-6.967 3.488-10.567zm8.437 2.118l-1.099 7.744c-.092.66-.034 1.107.182 1.341.215.237.65.354 1.307.354h2.054l.113 2.118c-.825.245-1.893.368-3.207.368-1.219 0-2.095-.34-2.63-1.018-.533-.677-.718-1.647-.547-2.909l1.126-7.998h-2.502l.254-1.977 2.56-.141.592-4.04h2.673l-.561 4.04h4.22l-.28 2.118h-4.255zm15.837 9.385l.168 1.835c-1.332.527-3.218.791-5.655.791-2.344 0-3.967-.615-4.867-1.85-.9-1.234-1.18-3.15-.845-5.749.356-2.655 1.081-4.47 2.18-5.44 1.095-.97 2.903-1.454 5.415-1.454 2.14 0 3.59.378 4.36 1.13.77.754 1.051 1.864.846 3.336-.226 1.338-.75 2.304-1.575 2.896-.825.595-2.09.956-3.795 1.086l-4.755.423c-.02 1.3.254 2.18.815 2.641.561.46 1.444.691 2.642.691 1.277 0 2.964-.11 5.066-.337zm-8.355-5.032l4.587-.422c.862-.056 1.492-.241 1.886-.55.393-.31.646-.853.76-1.627.112-.884-.035-1.43-.435-1.64-.404-.207-1.222-.31-2.461-.31-1.424 0-2.434.296-3.023.89-.595.592-1.033 1.813-1.314 3.66zM92.554 6.427l-.76 5.708c-.168 1.245-.414 2.297-.733 3.164.9-.905 1.89-1.668 2.968-2.29 1.078-.623 2.078-.933 2.995-.933 1.088 0 1.924.203 2.502.61.582.405.993 1.158 1.239 2.258.243 1.1.205 2.614-.113 4.536-.205 1.544-.496 2.802-.873 3.772-.376.97-.862 1.692-1.461 2.163-.6.471-1.209.78-1.828.932-.62.151-1.417.227-2.39.227-2.285 0-4.592-.34-6.92-1.018l2.673-19.13h2.7zm-1.547 11.02l-.928 6.782c1.349.055 2.352.086 3.009.086 1.78 0 2.954-.286 3.515-.864.561-.574.993-1.963 1.294-4.167.263-2.053.29-3.373.085-3.958-.205-.585-.739-.877-1.602-.877-1.331.004-3.121 1-5.373 2.999zm23.206 8.759h-2.139l.113-2.545c-1.65 1.922-3.618 2.882-5.908 2.882-1.67 0-2.793-.547-3.375-1.64-.582-1.094-.684-3.016-.308-5.764.205-1.526.496-2.775.873-3.744.376-.97.873-1.692 1.492-2.163.62-.471 1.256-.788 1.914-.946.657-.158 1.499-.24 2.532-.24 2.232 0 4.474.244 6.723.735l-1.917 13.425zm-2.054-4.973l.986-6.839c-1.725-.038-2.69-.055-2.896-.055-.975 0-1.714.048-2.221.141a2.465 2.465 0 00-1.335.722c-.383.385-.667.88-.845 1.482-.178.602-.353 1.49-.521 2.655-.263 2.053-.294 3.373-.099 3.954.199.585.736.877 1.619.877.863 0 1.705-.24 2.533-.722.818-.475 1.749-1.214 2.779-2.215zm9.142-8.816l-.14 2.968c2.475-2.222 4.641-3.336 6.496-3.336 1.164 0 2.044.334 2.643 1.004.599.67.804 1.627.619 2.868l-1.461 10.285h-2.701l1.321-9.608c.113-.866.079-1.454-.099-1.767-.178-.31-.568-.468-1.167-.468-.77 0-1.571.238-2.406.705-.835.471-1.927 1.245-3.276 2.318l-1.208 8.817h-2.728l1.941-13.79h2.166v.004zm21.601 0h2.786c-.787 2.469-2.307 4.511-4.555 6.131.28.433.561.98.845 1.64l2.673 6.018h-2.926l-2.643-6.358c-.845.454-1.93.98-3.261 1.582l-.702 4.776h-2.701l2.756-19.78h2.728l-1.239 9.268a16.123 16.123 0 01-.901 3.39c1.78-.849 3.324-1.84 4.628-2.98 1.297-1.14 2.136-2.367 2.512-3.687zM20.167 6.537H6.69v13.538h13.476V6.537zM6.647 0H.093v6.492h6.554V0zm19.934 0h-6.462v6.492h6.462V0z"
    fill="currentColor" />
  <path
    d="M33.15 26.206l2.727-19.497c1.52-.152 3.638-.227 6.356-.227 2.382 0 4.032.378 4.95 1.131.917.753 1.238 2.111.954 4.068-.205 1.413-.609 2.469-1.208 3.164-.599.697-1.492 1.103-2.673 1.213l-.028.141c2.588.207 3.639 1.96 3.15 5.258-.302 1.96-.938 3.277-1.914 3.954-.975.678-2.587 1.018-4.836 1.018-3.28.004-5.77-.072-7.479-.223zm3.066-2.201l3.994.027c1.537 0 2.615-.22 3.235-.663.62-.444 1.023-1.314 1.208-2.613.188-1.393.041-2.332-.435-2.813-.479-.482-1.475-.73-2.995-.75h-4.049l-.958 6.812zm1.266-8.989h3.882c1.348 0 2.32-.227 2.912-.677.593-.45.98-1.3 1.168-2.545.167-1.186.017-1.967-.452-2.345-.47-.375-1.434-.564-2.896-.564h-3.768l-.846 6.131zm22.895-2.599h2.84c-1.012 4.484-2.333 8.28-3.966 11.389-1.462 2.788-2.913 4.766-4.347 5.935C53.47 30.91 51.76 31.663 49.77 32l-.507-1.95c1.202-.283 2.25-.706 3.15-1.273.9-.564 1.762-1.423 2.587-2.572h-1.267c-.43 0-.797-.117-1.095-.354-.301-.234-.49-.56-.561-.977l-2.642-12.461h2.871l2.081 11.161c.055.32.243.482.562.482h1.379c.075-.13.178-.327.308-.578.13-.254.216-.42.253-.495 1.65-3.446 2.814-6.967 3.488-10.567zm8.437 2.118l-1.099 7.744c-.092.66-.034 1.107.182 1.341.215.237.65.354 1.307.354h2.054l.113 2.118c-.825.245-1.893.368-3.207.368-1.219 0-2.095-.34-2.63-1.018-.533-.677-.718-1.647-.547-2.909l1.126-7.998h-2.502l.254-1.977 2.56-.141.592-4.04h2.673l-.561 4.04h4.22l-.28 2.118h-4.255zm15.837 9.385l.168 1.835c-1.332.527-3.218.791-5.655.791-2.344 0-3.967-.615-4.867-1.85-.9-1.234-1.18-3.15-.845-5.749.356-2.655 1.081-4.47 2.18-5.44 1.095-.97 2.903-1.454 5.415-1.454 2.14 0 3.59.378 4.36 1.13.77.754 1.051 1.864.846 3.336-.226 1.338-.75 2.304-1.575 2.896-.825.595-2.09.956-3.795 1.086l-4.755.423c-.02 1.3.254 2.18.815 2.641.561.46 1.444.691 2.642.691 1.277 0 2.964-.11 5.066-.337zm-8.355-5.032l4.587-.422c.862-.056 1.492-.241 1.886-.55.393-.31.646-.853.76-1.627.112-.884-.035-1.43-.435-1.64-.404-.207-1.222-.31-2.461-.31-1.424 0-2.434.296-3.023.89-.595.592-1.033 1.813-1.314 3.66zM92.554 6.427l-.76 5.708c-.168 1.245-.414 2.297-.733 3.164.9-.905 1.89-1.668 2.968-2.29 1.078-.623 2.078-.933 2.995-.933 1.088 0 1.924.203 2.502.61.582.405.993 1.158 1.239 2.258.243 1.1.205 2.614-.113 4.536-.205 1.544-.496 2.802-.873 3.772-.376.97-.862 1.692-1.461 2.163-.6.471-1.209.78-1.828.932-.62.151-1.417.227-2.39.227-2.285 0-4.592-.34-6.92-1.018l2.673-19.13h2.7zm-1.547 11.02l-.928 6.782c1.349.055 2.352.086 3.009.086 1.78 0 2.954-.286 3.515-.864.561-.574.993-1.963 1.294-4.167.263-2.053.29-3.373.085-3.958-.205-.585-.739-.877-1.602-.877-1.331.004-3.121 1-5.373 2.999zm23.206 8.759h-2.139l.113-2.545c-1.65 1.922-3.618 2.882-5.908 2.882-1.67 0-2.793-.547-3.375-1.64-.582-1.094-.684-3.016-.308-5.764.205-1.526.496-2.775.873-3.744.376-.97.873-1.692 1.492-2.163.62-.471 1.256-.788 1.914-.946.657-.158 1.499-.24 2.532-.24 2.232 0 4.474.244 6.723.735l-1.917 13.425zm-2.054-4.973l.986-6.839c-1.725-.038-2.69-.055-2.896-.055-.975 0-1.714.048-2.221.141a2.465 2.465 0 00-1.335.722c-.383.385-.667.88-.845 1.482-.178.602-.353 1.49-.521 2.655-.263 2.053-.294 3.373-.099 3.954.199.585.736.877 1.619.877.863 0 1.705-.24 2.533-.722.818-.475 1.749-1.214 2.779-2.215zm9.142-8.816l-.14 2.968c2.475-2.222 4.641-3.336 6.496-3.336 1.164 0 2.044.334 2.643 1.004.599.67.804 1.627.619 2.868l-1.461 10.285h-2.701l1.321-9.608c.113-.866.079-1.454-.099-1.767-.178-.31-.568-.468-1.167-.468-.77 0-1.571.238-2.406.705-.835.471-1.927 1.245-3.276 2.318l-1.208 8.817h-2.728l1.941-13.79h2.166v.004zm21.601 0h2.786c-.787 2.469-2.307 4.511-4.555 6.131.28.433.561.98.845 1.64l2.673 6.018h-2.926l-2.643-6.358c-.845.454-1.93.98-3.261 1.582l-.702 4.776h-2.701l2.756-19.78h2.728l-1.239 9.268a16.123 16.123 0 01-.901 3.39c1.78-.849 3.324-1.84 4.628-2.98 1.297-1.14 2.136-2.367 2.512-3.687zM13.475 20.03H0v6.77h13.475v-6.77z"
    fill="currentColor" />
  <path d="M20.475 7H7v13.538h13.475V7zM6.647 0H.093v6.492h6.554V0zM26.58 0h-6.46v6.492h6.462V0z" fill="currentColor" />
</svg>