<?xml version="1.0" standalone="no"?>
<!DOCTYPE svg PUBLIC "-//W3C//DTD SVG 20010904//EN" "http://www.w3.org/TR/2001/REC-SVG-20010904/DTD/svg10.dtd">
<svg version="1.0" xmlns="http://www.w3.org/2000/svg" width="112.000000pt" height="112.000000pt"
  viewBox="0 0 112.000000 112.000000" preserveAspectRatio="xMidYMid meet">

  <g transform="translate(0.000000,112.000000) scale(0.100000,-0.100000)" fill="currentColor" stroke="none">
    <path d="M867 1031 c6 -66 -6 -84 -38 -55 -18 16 -20 16 -37 1 -33 -30 -42
-21 -42 44 l0 60 -102 -6 c-502 -31 -500 -31 -515 -51 -11 -14 -13 -38 -9 -94
3 -41 11 -228 16 -415 6 -187 13 -358 15 -380 2 -22 4 -43 4 -46 2 -17 62 -23
401 -39 313 -15 368 -15 388 -3 l22 13 0 500 c0 557 4 530 -70 530 l-38 0 5
-59z m-225 -121 c76 -22 137 -102 138 -182 0 -45 -14 -51 -105 -46 -58 3 -60
4 -63 33 -2 17 -8 36 -14 43 -13 15 -50 16 -66 0 -32 -32 2 -77 97 -129 112
-59 161 -121 161 -205 0 -120 -86 -194 -226 -194 -143 0 -212 54 -229 179 -9
65 -3 71 82 71 79 0 93 -6 93 -39 0 -64 68 -98 92 -46 17 37 -10 68 -112 129
-101 61 -140 110 -148 184 -6 64 10 110 52 151 57 55 157 76 248 51z" />
  </g>
</svg>